<?xml version="1.0" encoding="utf-8"?>
<!-- Generator: Adobe Illustrator 23.0.3, SVG Export Plug-In . SVG Version: 6.00 Build 0)  -->
<svg version="1.1" id="Layer_1" xmlns="http://www.w3.org/2000/svg" xmlns:xlink="http://www.w3.org/1999/xlink" x="0px" y="0px"
	 viewBox="0 0 595 620" style="enable-background:new 0 0 595 620;" xml:space="preserve">
<style type="text/css">
	.st0{enable-background:new    ;}
	.st1{fill:#D32E31;}
</style>
<g id="Эллипс_539_копия_4_1_" class="st0">
	<g id="Эллипс_539_копия_4">
		<g>
			<path class="st1" d="M561.5,48c-10.2,0-18.5,8.3-18.5,18.5S551.3,85,561.5,85S580,76.7,580,66.5S571.7,48,561.5,48z M102,161.5
				C102,143,87,128,68.5,128S35,143,35,161.5S50,195,68.5,195S102,180,102,161.5z M490.4,505.1c-2.7,0-4.9,2.2-4.9,4.9
				c0,2.7,2.2,4.9,4.9,4.9c2.7,0,4.9-2.2,4.9-4.9S493.1,505.1,490.4,505.1z M99.5,538C80.4,538,65,553.4,65,572.5S80.4,607,99.5,607
				s34.5-15.4,34.5-34.5S118.6,538,99.5,538z M390.1,257.8c-63.6,0-115.1,51.5-115.1,115s51.5,115,115.1,115s115.1-51.5,115.1-115
				S453.7,257.8,390.1,257.8z"/>
		</g>
	</g>
</g>
</svg>
