<?xml version="1.0" encoding="utf-8"?>
<!-- Generator: Adobe Illustrator 23.0.3, SVG Export Plug-In . SVG Version: 6.00 Build 0)  -->
<svg version="1.1" id="Layer_1" xmlns:serif="http://www.serif.com/"
	 xmlns="http://www.w3.org/2000/svg" xmlns:xlink="http://www.w3.org/1999/xlink" x="0px" y="0px" viewBox="0 0 612 792"
	 style="enable-background:new 0 0 612 792;" xml:space="preserve">
<style type="text/css">
	.st0{fill:#606B78;}
	.st1{fill:#F1C867;}
	.st2{fill:#3E4049;}
	.st3{fill:#585A67;}
	.st4{clip-path:url(#SVGID_2_);}
	.st5{clip-path:url(#SVGID_4_);}
	.st6{fill:#727485;}
	.st7{clip-path:url(#SVGID_6_);}
	.st8{clip-path:url(#SVGID_8_);}
	.st9{fill:#797C8E;}
	.st10{fill:#676979;}
	.st11{fill-rule:evenodd;clip-rule:evenodd;fill:#585A67;}
	.st12{fill:#2D2F38;}
	.st13{fill-rule:evenodd;clip-rule:evenodd;fill:#C9292C;}
</style>
<path id="Bubbles" class="st0" d="M51.4,183.5c16.6-1.4,28.9-16,27.5-32.6c-1.4-16.6-16-28.9-32.6-27.5c-16.6,1.4-28.9,16-27.5,32.6
	C20.3,172.6,34.8,184.9,51.4,183.5z M38.3,673c-21.8,1.8-38,20.9-36.2,42.7c1.8,21.8,21,37.9,42.7,36.1c21.8-1.8,38-20.9,36.2-42.7
	C79.3,687.3,60.1,671.2,38.3,673z M465.8,621.6c-6.3,0.5-11,6.1-10.4,12.4c0.5,6.3,6.1,11,12.4,10.4c6.3-0.5,11-6.1,10.4-12.4
	C477.7,625.8,472.1,621.1,465.8,621.6z M609.9,50.5c-0.5-6.3-6.1-11-12.4-10.5c-6.3,0.5-11,6.1-10.5,12.4c0.5,6.3,6.1,11,12.4,10.5
	C605.7,62.4,610.4,56.9,609.9,50.5z"/>
<path id="Localization" class="st1" d="M426.7,135.3c-25.6,0-46.3,20.7-46.3,46.3s20.7,46.3,46.3,46.3s46.3-20.7,46.3-46.3
	S452.3,135.3,426.7,135.3z M421.1,185.3l-9.5,9.4l-2.7-2.6l9.6-9.4c-2.4-2.6-4.3-5.5-5.6-8.5h3.8c1.1,2.2,2.6,4.3,4.4,6.3
	c2.7-3,4.7-6.4,6-10h-21.1v-3.8h13.2v-3.7h3.8v3.7h13.2v3.7h-5.5c-1.4,4.4-3.7,8.6-7,12.2l-0.1,0.1l4.8,4.7l-1.4,3.8L421.1,185.3
	L421.1,185.3z"/>
<g id="people_1_">
	<path id="Background" class="st2" d="M341.4,507.4c0-44.6,34.6-81.1,78.5-84.1c5-30-0.1-61.8-16.6-90.2l-44.8-76.9
		c-37.9-65.2-122-87.5-187.8-49.9c-14.3,8.2-26.6,18.5-36.6,30.4c32.3,11.8,55.3,42.8,55.3,79.2c0,40.2-28.1,73.8-65.8,82.2
		l41.5,71.3c36.1,62,113.8,85.2,177.9,55C342,518.9,341.4,513.2,341.4,507.4L341.4,507.4z"/>
	<path id="Shirt" class="st3" d="M341.4,507.4c0-42.7,31.8-78,73-83.5c-16.7-43.9-61.4-88.7-131-88.7
		c-75.6,0-119.7,59.8-131.8,103.2c-0.4,1.5-0.2,2.4-0.4,4.1c4.6,16.3,40.4,95.1,135.3,95.1c22.2,0,41.1-4.6,57-11.8
		C342.1,519.8,341.4,513.7,341.4,507.4L341.4,507.4z"/>
	<path id="Shirt-details" serif:id="Shirt details" class="st2" d="M200.4,510v-30.7c0,0-24.7,0-27.7,0
		C180.1,494.7,200.4,510,200.4,510z M369.4,479.3V510c0,0,20.3-15.3,27.7-30.7C394.1,479.3,369.4,479.3,369.4,479.3z"/>
	<path id="Shirt-print" serif:id="Shirt print" class="st2" d="M335.6,359.7c0-4.9-0.7-9.6-1.9-14c-0.1-0.5-0.4-1.4-0.4-1.4
		s-23.5-9.1-49.9-9.1s-49.9,9.1-49.9,9.1s-0.2,0.8-0.4,1.2c-1.3,4.5-2,9.3-2,14.2c0,20,11.3,37.4,28,46.2c4.5,5.2,5.8,12.1,5.8,12.1
		v113.5c0,5.9,1,6.1,21.5,6.1c17.9,0,18.4-0.3,18.4-6.1V418c0,0,3-10.5,9.2-15.3c1.3-1,1.6-1.6,1.4-1.9
		C327.7,391.2,335.6,376.4,335.6,359.7L335.6,359.7z"/>
	<g>
		<defs>
			<path id="SVGID_1_" d="M385,377.6c0,0-1-1-1.5-1.5c-23.3-23.6-56.9-40.9-100.2-40.9c-42.4,0-75,18.9-97.5,43.1
				c-0.5,0.5-1.5,1.6-1.5,1.6s1.3,87.2,102,87.2C387.1,467,385,377.6,385,377.6L385,377.6z"/>
		</defs>
		<clipPath id="SVGID_2_">
			<use xlink:href="#SVGID_1_"  style="overflow:visible;"/>
		</clipPath>
		<g class="st4">
			<g>
				<defs>
					<rect id="SVGID_3_" x="184.4" y="335.2" width="200.6" height="131.9"/>
				</defs>
				<clipPath id="SVGID_4_">
					<use xlink:href="#SVGID_3_"  style="overflow:visible;"/>
				</clipPath>
				<g class="st5">
					<g transform="matrix(0.99352,0,0,0.989844,0,0)">
						
							<image style="overflow:visible;enable-background:new    ;" width="97" height="64" id="_Image3" xlink:href="C1B0CADF.png"  transform="matrix(2.0681 0 0 2.0605 184.4329 335.1748)">
						</image>
					</g>
				</g>
			</g>
		</g>
	</g>
	<path id="Neck" class="st6" d="M284.9,301.4c-19.5,0-35.3,15.8-35.3,35.3v24.5c0,19.5,15.8,35.3,35.3,35.3
		c19.5,0,35.3-15.8,35.3-35.3v-24.5C320.2,317.2,304.4,301.4,284.9,301.4L284.9,301.4z"/>
	<g>
		<defs>
			<path id="SVGID_5_" d="M292.6,307.6h-15.4c-15.3,0-27.7,12.4-27.7,27.6s12.4,27.6,27.7,27.6h15.4c15.3,0,27.7-12.4,27.7-27.6
				C320.2,319.9,307.9,307.6,292.6,307.6z"/>
		</defs>
		<clipPath id="SVGID_6_">
			<use xlink:href="#SVGID_5_"  style="overflow:visible;"/>
		</clipPath>
		<g class="st7">
			<g>
				<defs>
					<rect id="SVGID_7_" x="249.5" y="307.6" width="70.7" height="55.2"/>
				</defs>
				<clipPath id="SVGID_8_">
					<use xlink:href="#SVGID_7_"  style="overflow:visible;"/>
				</clipPath>
				<g class="st8">
					<g transform="matrix(0.998824,0,0,0.982222,3.46945e-18,0)">
						
							<image style="overflow:visible;enable-background:new    ;" width="34" height="27" id="_Image6" xlink:href="C1B0CADD.png"  transform="matrix(2.0792 0 0 2.0446 249.5458 307.5717)">
						</image>
					</g>
				</g>
			</g>
		</g>
	</g>
	<path id="Hair-detail2" serif:id="Hair detail" class="st3" d="M286.4,80.6c-59.4,0-107.6,48.1-107.6,107.3l6.1,52.1
		c0,59.3,42,67.5,101.4,67.5s101.4-8.2,101.4-67.5L394,188C394,128.7,345.8,80.6,286.4,80.6L286.4,80.6z"/>
	<path id="Head" class="st6" d="M286.2,102.5c-51.1,0-92.6,41.2-92.6,92.1V256c0,50.9,41.5,92.1,92.6,92.1s92.6-41.2,92.6-92.1
		v-61.4C378.8,143.7,337.4,102.5,286.2,102.5z"/>
	<path id="Cheek" class="st9" d="M355.3,262.7c-7.5-3.6-16.9,1.2-20.9,10.8s-1.2,20.1,6.2,23.7c7.5,3.6,16.9-1.2,20.9-10.8
		S362.7,266.3,355.3,262.7z M217.7,262.7c-7.5,3.6-10.2,14.2-6.2,23.7c4,9.5,13.3,14.3,20.8,10.8s10.2-14.2,6.2-23.7
		C234.4,264,225.1,259.2,217.7,262.7z"/>
	<path id="Ear" class="st10" d="M163.3,227.6v3.2c0,16.9,13.7,30.7,30.7,30.7h0v-64.6h0C177.1,196.9,163.3,210.6,163.3,227.6
		L163.3,227.6z M378.1,196.9L378.1,196.9l0,64.6h0c16.9,0,30.7-13.7,30.7-30.7v-3.2C408.8,210.6,395.1,196.9,378.1,196.9
		L378.1,196.9z"/>
	<path id="Eyes" class="st3" d="M243.4,234c-5.1,0-9.2,4.1-9.2,9.2s4.1,9.2,9.2,9.2c5.1,0,9.2-4.1,9.2-9.2
		C252.6,238.1,248.5,234,243.4,234z M326.4,234c-5.1,0-9.2,4.1-9.2,9.2s4.1,9.2,9.2,9.2s9.2-4.1,9.2-9.2
		C335.6,238.1,331.5,234,326.4,234z M339,206.4l-24.7,0.1c-3.4,0-6.2,2.7-6.2,6.1c0,3.4,2.7,6.1,6.2,6.1l24.7-0.1
		c3.4,0,6.2-2.7,6.2-6.1C345.2,209.1,342.4,206.4,339,206.4L339,206.4z M255.5,206.5l-24.7-0.1c-3.4,0-6.2,2.7-6.2,6.1
		s2.8,6.1,6.2,6.1l24.7,0.1c3.4,0,6.2-2.7,6.2-6.1C261.6,209.2,258.9,206.5,255.5,206.5z"/>
	<path id="Mouth" class="st3" d="M303.9,289.8h-35.4c0,0,7.2,4.2,18.7,4.2C298.8,294,303.9,289.8,303.9,289.8z"/>
	<path id="Hair" class="st3" d="M286.4,80.6C232.6,80.6,177,120.7,177,202c0.9,3,16.3-15.2,17,16.6c1.7,4.8,7.2-26.3,4.9-36.9
		c-2.3-10.7,17.2-48.9,26-48.9c8.8,0,32.6,15.1,63.8,15.1s50-17.2,56.5-15.8c6.5,1.3,28.8,22.3,28.3,46.4s4.5,44,4.5,40.3
		c0-16.4,13-12.8,19-15.2C397.1,119.7,340.3,80.6,286.4,80.6z"/>
</g>
<g id="Money">
	<circle id="Circle" class="st11" cx="105.1" cy="315.9" r="63.5"/>
	<path id="Sign" class="st12" d="M109.6,310.6c-6.7-2.5-9.5-4.2-9.5-6.8c0-2.2,1.7-4.4,6.8-4.4c5.7,0,9.4,1.8,11.4,2.7l2.3-9
		c-2.6-1.3-6.2-2.4-11.5-2.6v-7h-7.8v7.5c-8.5,1.7-13.4,7.1-13.4,14.1c0,7.7,5.8,11.6,14.3,14.5c5.9,2,8.4,3.9,8.4,6.9
		c0,3.2-3.1,4.9-7.6,4.9c-5.2,0-9.8-1.7-13.2-3.5l-2.4,9.3c3,1.7,8.2,3.2,13.5,3.4v7.5h7.8v-8.1c9.1-1.6,14.1-7.6,14.1-14.6
		C122.8,318.3,119,313.9,109.6,310.6z"/>
</g>
<g id="Logo">
	<circle id="Circle1" serif:id="Circle" class="st13" cx="425.7" cy="507.4" r="63.5">
	</circle>
</g>
</svg>
