<?xml version="1.0" encoding="utf-8"?>
<!-- Generator: Adobe Illustrator 23.0.3, SVG Export Plug-In . SVG Version: 6.00 Build 0)  -->
<svg version="1.1" id="Layer_1" xmlns:serif="http://www.serif.com/"
	 xmlns="http://www.w3.org/2000/svg" xmlns:xlink="http://www.w3.org/1999/xlink" x="0px" y="0px" viewBox="0 0 612 792"
	 style="enable-background:new 0 0 612 792;" xml:space="preserve">
<style type="text/css">
	.st0{fill:#404853;}
	.st1{fill:#555F6A;}
	.st2{fill-rule:evenodd;clip-rule:evenodd;fill:#555F6A;}
	.st3{fill-rule:evenodd;clip-rule:evenodd;fill:#2D2F38;}
	.st4{fill-rule:evenodd;clip-rule:evenodd;fill:#C9292C;}
	.st5{fill:#606B78;}
	.st6{fill:#2D2F38;}
</style>
<path id="Bubbles" class="st0" d="M494.2,100.2c0-9.4-7.6-17-17-17s-17,7.6-17,17s7.6,17,17,17S494.2,109.6,494.2,100.2z
	 M62.4,182.9c-16.9,0-30.6,13.7-30.6,30.6s13.7,30.6,30.6,30.6S93,230.4,93,213.5S79.3,182.9,62.4,182.9z M22.7,668
	c-11.3,0-20.4,9.1-20.4,20.4c0,11.3,9.1,20.4,20.4,20.4s20.4-9.1,20.4-20.4C43.1,677.1,34,668,22.7,668z M487.4,556.9
	c-2.5,0-4.5,2-4.5,4.5s2,4.5,4.5,4.5s4.5-2,4.5-4.5S489.8,556.9,487.4,556.9z"/>
<path id="Globe" class="st1" d="M273.2,112.7c-139.8,0-252.7,113-252.7,252.7s113,252.7,252.7,252.7s252.7-113,252.7-252.7
	S412.9,112.7,273.2,112.7L273.2,112.7z M196.9,147.1c-13.3,18.7-24.7,38.4-34.2,59.1h-57.4C130.3,179.8,161.6,159.3,196.9,147.1
	L196.9,147.1z M87.2,227.7h66.4c-15.6,40.2-24.2,83.1-25.4,126.9H42.2C44.4,307.2,60.7,263.5,87.2,227.7z M87.2,503.1
	c-26.5-35.8-42.8-79.5-45-126.9h85.9c1.2,43.8,10.1,86.7,25.8,126.9C154,503.1,87.2,503.1,87.2,503.1z M105.3,524.6h57.9
	c9.6,20.7,21,40.6,34.1,59.3C161.9,571.7,130.4,551.2,105.3,524.6z M262.4,596.4c-10.7-0.5-21.4-1.8-31.7-3.6
	c-17.2-21.2-31.8-44-43.7-68.1h75.5V596.4L262.4,596.4z M262.4,503.1h-85.3c-16.6-40.1-26.2-83-27.5-126.9h112.8L262.4,503.1
	L262.4,503.1z M262.4,354.7H149.6c1.3-43.8,10.7-86.8,27.3-126.9h85.5L262.4,354.7L262.4,354.7L262.4,354.7z M262.5,206.2h-75.8
	c12-24.3,26.7-47.1,43.9-68.1c10.3-2,21-3.1,31.8-3.6L262.5,206.2L262.5,206.2z M459.1,227.7c26.5,35.8,42.9,79.4,45,126.9h-85.9
	c-1.2-43.8-10.1-86.7-25.8-126.9H459.1L459.1,227.7z M441,206.2h-57.9c-9.6-20.7-21-40.6-34.2-59.3
	C384.4,159.1,415.9,179.6,441,206.2z M283.9,134.5c10.7,0.5,21.4,1.8,31.7,3.6c17.2,21.2,31.8,44,43.7,68.1h-75.5V134.5z
	 M283.9,227.7h85.3c16.6,40,26.2,83,27.5,126.9H283.9V227.7L283.9,227.7z M283.9,376.1h112.8c-1.3,43.8-10.7,86.8-27.3,126.9h-85.5
	L283.9,376.1L283.9,376.1L283.9,376.1z M283.8,596.3v-71.7h75.8c-12,24.3-26.7,47.1-43.9,68.1C305.3,594.7,294.7,595.8,283.8,596.3
	L283.8,596.3z M348.9,583.9c13.1-18.7,24.5-38.7,34-59.3h58.2C415.9,551.2,384.4,571.7,348.9,583.9L348.9,583.9z M392,503.1
	c15.5-40.2,24.3-83.1,26-126.9h86.1c-2.2,47.4-18.5,91.2-45,126.9H392L392,503.1z"/>
<circle id="Circle-double-shadow" serif:id="Circle double shadow" class="st2" cx="273.2" cy="365.4" r="153">
</circle>
<circle id="Circle-shadow" serif:id="Circle shadow" class="st3" cx="273.2" cy="365.4" r="134.9">
</circle>
<path id="Circle" class="st4" d="M249.8,305.9c34.1-14.1,73.2,2.1,87.4,36.2c14.1,34.1-2.1,73.2-36.2,87.4
	c-34.1,14.1-73.2-2.1-87.4-36.2C199.5,359.2,215.7,320,249.8,305.9L249.8,305.9z"/>
<path id="Bubble-up-right-shadow" serif:id="Bubble up right shadow" class="st5" d="M530.4,133.1c-43.8,0-79.3,35.5-79.3,79.3
	c0,16.5,5,31.8,13.6,44.5c0.2,0.2,0.5,0.7,0.5,0.7s-10,29.4-8.3,31.2c1.8,1.7,33-8.1,33-8.1s0.6,0.4,1,0.6
	c11.6,6.7,25.1,10.5,39.5,10.5c43.8,0,79.3-35.5,79.3-79.3C609.8,168.6,574.2,133.1,530.4,133.1L530.4,133.1z"/>
<path id="Bubble-up-right" serif:id="Bubble up right" class="st6" d="M530.4,151.2c-33.8,0-61.2,27.4-61.2,61.2
	c0,12.7,3.9,24.5,10.5,34.3c0.1,0.2,0.4,0.5,0.4,0.5s-7.7,22.7-6.4,24s25.5-6.3,25.5-6.3s0.5,0.3,0.7,0.4c9,5.1,19.3,8.1,30.4,8.1
	c33.8,0,61.2-27.4,61.2-61.2S564.2,151.2,530.4,151.2L530.4,151.2z"/>
<path id="Bubble-down-left" serif:id="Bubble down left" class="st5" d="M69.9,562.1c-0.1-0.2-0.3-0.5-0.3-0.5s4.6-14.8,3.8-15.6
	c-0.8-0.8-14.7,3.9-14.7,3.9s-0.2-0.2-0.3-0.2c-6-4.1-13.2-6.4-21-6.4C16.8,543.3,0,560.1,0,580.7s16.8,37.4,37.4,37.4
	s37.4-16.8,37.4-37.4C74.8,574,73,567.6,69.9,562.1z"/>
</svg>
