<?xml version="1.0" encoding="utf-8"?>
<!-- Generator: Adobe Illustrator 23.0.3, SVG Export Plug-In . SVG Version: 6.00 Build 0)  -->
<svg version="1.1" id="Layer_1" xmlns="http://www.w3.org/2000/svg" xmlns:xlink="http://www.w3.org/1999/xlink" x="0px" y="0px"
	 viewBox="0 0 290 315" style="enable-background:new 0 0 290 315;" xml:space="preserve">
<style type="text/css">
	.st0{fill:#404853;}
	.st1{fill:#778391;}
	.st2{fill:#606B78;}
	.st3{fill:#E4B22D;}
	.st4{fill:#D4A527;}
	.st5{fill:#AD733B;}
	.st6{fill:#23242C;}
	
		.st7{opacity:0.38;fill:none;stroke:#444D59;stroke-width:2;stroke-linecap:round;stroke-linejoin:round;stroke-dasharray:4,6;enable-background:new    ;}
	.st8{opacity:0.388;enable-background:new    ;}
	.st9{fill:#697584;}
	.st10{fill:#48525E;}
	.st11{fill:#56616F;}
	.st12{fill:#4B5460;}
</style>
<g>
	<path class="st0" d="M64,296.5c0-4.1,3.4-7.5,7.5-7.5s7.5,3.4,7.5,7.5s-3.4,7.5-7.5,7.5l0,0C67.4,304,64,300.6,64,296.5z
		 M251,246.5c0-7.5,6-13.5,13.5-13.5s13.5,6,13.5,13.5s-6,13.5-13.5,13.5l0,0C257,260,251,254,251,246.5z M35,63c0-1.1,0.9-2,2-2
		s2,0.9,2,2s-0.9,2-2,2S35,64.1,35,63z M263,37c0-5,4-9,9-9s9,4,9,9s-4,9-9,9S263,42,263,37z"/>
	<path class="st1" d="M242,124v-12c0-9-4.9-15-14-15H110c-8.6,0-17,3.9-17,14v13H242z"/>
	<path class="st2" d="M242,127v-12c0-9-4.9-15-14-15H110c-8.6,0-13,3.9-13,14v13H242z"/>
	<g>
		<circle class="st3" cx="153" cy="115" r="27"/>
		<circle class="st4" cx="152.8" cy="114.8" r="22.5"/>
		<path class="st5" d="M149.5,118.3h6.2"/>
	</g>
	<g>
		<circle class="st3" cx="185" cy="106" r="27"/>
		<circle class="st4" cx="184.8" cy="105.8" r="22.5"/>
	</g>
	<path class="st6" d="M93,217c0,7.5,3.9,16,17,16h120c8.2,0,16-5.6,16-17v-78c0-6.1-2.4-15-15-15H106c-3.6,0-8-3-8-7
		c0-1.1-5-2.4-5,2V217z"/>
	<path class="st1" d="M93,209c0,7.5,3.9,16,17,16h120c8.2,0,16-5.6,16-17v-78c0-6.1-2.4-15-15-15H106c-3.6,0-8-3-8-7
		c0-1.1-5-2.4-5,2V209z"/>
	<path class="st2" d="M93,209c0,7.5,3.9,16,17,16h120c8.2,0,16-5.6,16-17v-75c0-6.1-2.4-15-15-15H106c-7.2,0-12-5-12-9
		c-0.2-2.9,0-3.5-1-1.2V209z"/>
	<path class="st7" d="M96,207c3.2,7.6,5.9,9,14,9h113c6.5,0,14-4.4,14-11v-67c0-3-2.6-10-9-10H109c-5.1,0-13.2-1.6-15-8"/>
	<path class="st8" d="M248,163c0.2-2-1.3-3.8-3.4-4c-0.2,0-0.4,0-0.6,0h-15c-9.1,0.3-16.2,7.9-16,17c0,11.5,8.7,17,16,17h15
		c2.1,0.1,3.9-1.5,4-3.6c0-0.1,0-0.3,0-0.4V163z"/>
	<path class="st1" d="M250,160c0.2-2-1.3-3.8-3.4-4c-0.2,0-0.4,0-0.6,0h-16c-9.1,0.3-16.2,7.9-16,17c0,11.5,8.7,17,16,17h16
		c2.1,0.1,3.9-1.5,4-3.6c0-0.1,0-0.3,0-0.4V160z"/>
	<path class="st9" d="M250,162c0.2-2-1.3-3.8-3.4-4c-0.2,0-0.4,0-0.6,0h-15c-9.1,0.3-16.2,7.9-16,17c0,11.5,8.7,15,16,15h15
		c2.1,0.1,3.9-1.5,4-3.6c0-0.1,0-0.3,0-0.4V162z"/>
	<circle class="st10" cx="225.5" cy="173.5" r="4.5"/>
	<g>
		<circle class="st11" cx="167.7" cy="170.9" r="33.7"/>
		<circle class="st12" cx="167.6" cy="171" r="30.6"/>
	</g>
	<path class="st12" d="M58,175c-4.2,0-8-0.7-8-9V97.9C26,96.5,7.7,76,9.1,52c1-16.5,11.2-31.1,26.5-37.5
		c22.2-9.3,47.7,1.2,56.9,23.4c9.2,22-1.1,47.4-23.1,56.8c-4.6,1.9-9.5,3.1-14.4,3.3v68c0,2.4,0.8,4,3,4h23c2.3,0,3.2,5,0,5H58z
		 M37.5,19C17.9,27.3,8.6,49.9,16.9,69.6s30.9,28.9,50.6,20.6s28.9-30.9,20.6-50.6C82.1,25.3,68,16,52.5,16C47.4,16,42.3,17,37.5,19
		z"/>
	<circle class="st3" cx="52" cy="55" r="31"/>
	<circle class="st4" cx="52" cy="55" r="28"/>
	<path class="st5" d="M61.5,58c-4.8,0-9.3,2.7-11.5,7c3.3,6.4,11.1,8.8,17.4,5.6c2.4-1.2,4.3-3.2,5.6-5.6C70.8,60.7,66.3,58,61.5,58
		z M67.2,61.7c1.3,0.8,2.5,2,3.4,3.3c-3.2,5-9.9,6.4-14.9,3.2c-1.3-0.8-2.3-1.9-3.2-3.2c0.9-1.3,2-2.5,3.4-3.3
		c0.1-0.1,0.2-0.1,0.3-0.2c-0.2,0.6-0.3,1.3-0.3,1.9c0.1,3.2,2.7,5.7,5.9,5.6c3.1-0.1,5.5-2.5,5.6-5.6c0-0.7-0.1-1.3-0.3-1.9
		C67,61.6,67.1,61.7,67.2,61.7z M61,62.5c0,0.8-0.7,1.5-1.5,1.5S58,63.3,58,62.5s0.7-1.5,1.5-1.5l0,0C60.3,61,61,61.7,61,62.5z"/>
</g>
</svg>
