<?xml version="1.0" encoding="utf-8"?>
<!-- Generator: Adobe Illustrator 23.0.3, SVG Export Plug-In . SVG Version: 6.00 Build 0)  -->
<svg version="1.1" id="Layer_1" xmlns:serif="http://www.serif.com/"
	 xmlns="http://www.w3.org/2000/svg" xmlns:xlink="http://www.w3.org/1999/xlink" x="0px" y="0px" viewBox="0 0 612 792"
	 style="enable-background:new 0 0 612 792;" xml:space="preserve">
<style type="text/css">
	.st0{fill-rule:evenodd;clip-rule:evenodd;fill:#56616F;}
	.st1{fill:#404853;}
	.st2{fill:#778391;}
	.st3{fill:#606B78;}
	.st4{fill-rule:evenodd;clip-rule:evenodd;fill:#E4B22D;}
	.st5{fill-rule:evenodd;clip-rule:evenodd;fill:#D4A527;}
	.st6{fill-opacity:0.651;}
	
		.st7{fill:none;stroke:#444D59;stroke-width:2;stroke-linecap:round;stroke-linejoin:round;stroke-opacity:0.38;stroke-dasharray:4,6;}
	.st8{fill-opacity:0.388;}
	.st9{fill:#697584;}
	.st10{fill-rule:evenodd;clip-rule:evenodd;fill:#48525E;}
	.st11{fill:#4B5460;}
	.st12{fill-rule:evenodd;clip-rule:evenodd;fill:#3E4049;}
</style>
<g id="Canvas">
	<g>
		<ellipse id="Эллипс_542-7" class="st0" cx="52.6" cy="307.8" rx="50.6" ry="50.6"/>
		<path id="Bubbles" class="st1" d="M115.6,640.4c0-9.4,7.6-17.1,17.1-17.1c9.4,0,17.1,7.6,17.1,17.1c0,9.4-7.6,17.1-17.1,17.1
			C123.2,657.5,115.6,649.8,115.6,640.4z M365.7,534.3c0-2.1,1.7-3.8,3.8-3.8s3.8,1.7,3.8,3.8s-1.7,3.8-3.8,3.8
			S365.7,536.4,365.7,534.3z M140.2,243.5c0-14.1,11.4-25.6,25.6-25.6s25.6,11.4,25.6,25.6s-11.4,25.6-25.6,25.6
			S140.2,257.6,140.2,243.5z M498.3,148.7c0-7.8,6.4-14.2,14.2-14.2c7.8,0,14.2,6.4,14.2,14.2c0,7.8-6.4,14.2-14.2,14.2
			C504.7,162.9,498.3,156.6,498.3,148.7z"/>
	</g>
	<path id="Wallet-outer-border" serif:id="Wallet outer border" class="st2" d="M449.1,293.7v-22.7c0-17-9.3-28.4-26.5-28.4H198.9
		c-16.3,0-32.2,7.4-32.2,26.5v24.6H449.1z"/>
	<path id="Wallet-inner-background" serif:id="Wallet inner background" class="st3" d="M449.1,299.4v-22.7c0-17-9.3-28.4-26.5-28.4
		H198.9c-16.3,0-24.6,7.4-24.6,26.5v24.6H449.1z"/>
	<circle id="Coin" class="st4" cx="280.4" cy="272.8" r="51.2"/>
	<circle id="Coin-background" serif:id="Coin background" class="st5" cx="280.1" cy="272.5" r="42.6">
	</circle>
	<circle id="Second-coin" serif:id="Second coin" class="st4" cx="341.1" cy="255.8" r="51.2">
	</circle>
	<circle id="Second-coin-background" serif:id="Second coin background" class="st5" cx="340.7" cy="255.4" r="42.6">
	</circle>
	<path id="Wallet-shadow-down" serif:id="Wallet shadow down" class="st6" d="M166.7,469.9c0,14.2,7.4,30.3,32.2,30.3h227.4
		c15.5,0,30.3-10.6,30.3-32.2V320.2c0-11.6-4.5-28.4-28.4-28.4H191.4c-6.9,0-15.2-5.7-15.2-13.3c0-2.2-9.5-4.5-9.5,3.8V469.9z"/>
	<path id="Wallet-shadow-up" serif:id="Wallet shadow up" class="st2" d="M166.7,454.7c0,14.2,7.4,30.3,32.2,30.3h227.4
		c15.5,0,30.3-10.6,30.3-32.2V305.1c0-11.6-4.5-28.4-28.4-28.4H191.4c-6.9,0-15.8-5.4-15.8-13c0-2.2-8.9-4.8-8.9,3.5V454.7z"/>
	<path id="Wallet-background" serif:id="Wallet background" class="st3" d="M166.7,454.7c0,14.2,7.4,30.3,32.2,30.3h227.4
		c15.5,0,30.3-10.6,30.3-32.2V310.7c0-11.6-4.5-28.4-28.4-28.4s-232.6-0.3-239.5-0.3c-13.6,0-21.2-10.3-21.2-18.4c0-2.2-1-0.8-1,1.6
		S166.7,440.5,166.7,454.7L166.7,454.7z"/>
	<path id="Wallet-dotted-border" serif:id="Wallet dotted border" class="st7" d="M172.4,449.1c5.2,11.3,11.1,18.9,26.5,18.9h214.1
		c12.2,0,26.5-8.4,26.5-20.8V320.2c0-5.7-4.9-18.9-17.1-18.9H189.5c-5.7,0-14.4-3.7-20.7-9.2"/>
	<path id="Wallet-border-glass" serif:id="Wallet border glass" class="st8" d="M460.4,367.6c0.3-3.9-2.6-7.3-6.4-7.6
		c-0.4,0-0.8,0-1.2,0h-28.4c-17.2,0.6-30.8,15-30.3,32.2c0,21.7,16.5,32.2,30.3,32.2h28.4c4,0.2,7.4-2.8,7.6-6.8c0-0.3,0-0.5,0-0.8
		V367.6z"/>
	<path id="Wallet-border-shadow-up" serif:id="Wallet border shadow up" class="st2" d="M464.2,361.9c0.3-3.9-2.6-7.3-6.4-7.6
		c-0.4,0-0.8,0-1.2,0h-30.3c-17.2,0.6-30.8,15-30.3,32.2c0,21.7,16.5,32.2,30.3,32.2h30.3c4,0.2,7.4-2.8,7.6-6.8c0-0.3,0-0.5,0-0.8
		V361.9z"/>
	<path id="Wallet-border-background" serif:id="Wallet border background" class="st9" d="M464.2,365.7c0.3-3.9-2.6-7.3-6.4-7.6
		c-0.4,0-0.8,0-1.2,0h-28.4c-17.2,0.6-30.8,15-30.3,32.2c0,21.7,14.6,28.4,28.4,28.4h30.3c0,0,7.6-3.7,7.6-7.6V365.7z"/>
	<circle id="Wallet-border-dot" serif:id="Wallet border dot" class="st10" cx="417.8" cy="387.5" r="8.5">
	</circle>
	<circle id="Wallet-logo-shadow" serif:id="Wallet logo shadow" class="st0" cx="313.6" cy="385.6" r="61.6">
	</circle>
	<circle id="Wallet-logo-shadow-glass" serif:id="Wallet logo shadow glass" class="st0" cx="313.6" cy="385.6" r="61.6">
	</circle>
	<path id="Wallet-logo-triangle_1_" serif:id="Wallet logo triangle" class="st11" d="M286.1,405.5L286.1,405.5h53"/>
	<circle id="Bubble-out" serif:id="Bubble out" class="st12" cx="569.1" cy="465.5" r="41.4">
	</circle>
</g>
</svg>
