<?xml version="1.0" encoding="utf-8"?>
<!-- Generator: Adobe Illustrator 23.0.3, SVG Export Plug-In . SVG Version: 6.00 Build 0)  -->
<svg version="1.1" id="Layer_1" xmlns:serif="http://www.serif.com/"
	 xmlns="http://www.w3.org/2000/svg" xmlns:xlink="http://www.w3.org/1999/xlink" x="0px" y="0px" viewBox="0 0 612 792"
	 style="enable-background:new 0 0 612 792;" xml:space="preserve">
<style type="text/css">
	.st0{fill:#404853;}
	.st1{fill:#778391;}
	.st2{fill:#606B78;}
	.st3{fill-opacity:0.68;}
	.st4{fill:#505B67;}
	.st5{fill-rule:evenodd;clip-rule:evenodd;fill:#4C5661;}
	.st6{fill:none;stroke:#D6E1EE;stroke-width:2;}
	.st7{fill-rule:evenodd;clip-rule:evenodd;fill:#E4B22D;}
	.st8{fill-rule:evenodd;clip-rule:evenodd;fill:#D4A527;}
	.st9{fill:#3F4853;}
	.st10{fill:#D6E1EE;}
	.st11{fill:#CB4F51;}
	.st12{fill:#BECEE2;}
	.st13{fill:#CAD9EA;}
	.st14{fill:#303740;}
	.st15{fill:#495463;}
	.st16{fill:#23242C;fill-opacity:0.6;}
	
		.st17{fill:none;stroke:#444D59;stroke-width:2;stroke-linecap:round;stroke-linejoin:round;stroke-opacity:0.66;stroke-dasharray:4,6;}
	.st18{fill-opacity:0.35;}
	.st19{fill:#697584;}
	.st20{fill-rule:evenodd;clip-rule:evenodd;fill:#48525E;}
	.st21{fill-rule:evenodd;clip-rule:evenodd;fill:#4B5460;}
	.st22{fill:#4B5460;}
</style>
<g id="Canvas">
	<path id="Bubbles" class="st0" d="M113.8,636.7c0-9.3,7.5-16.8,16.8-16.8s16.8,7.5,16.8,16.8s-7.5,16.8-16.8,16.8
		S113.8,646,113.8,636.7z M565.4,588.2c0-2.1,1.7-3.7,3.7-3.7c2.1,0,3.7,1.7,3.7,3.7s-1.7,3.7-3.7,3.7
		C567,591.9,565.4,590.2,565.4,588.2z M119.4,245.8c0-14,11.2-25.2,25.2-25.2c14,0,25.2,11.2,25.2,25.2S158.6,271,144.6,271
		C130.6,271,119.4,259.8,119.4,245.8z M490.7,152.5c0-7.7,6.3-14,14-14s14,6.3,14,14c0,7.6-6.3,14-14,14S490.7,160.2,490.7,152.5z"
		/>
	<path id="Wallet-outer-shadow" serif:id="Wallet outer shadow" class="st1" d="M185.1,344.3v-14.7c0-11-6-18.3-17.2-18.3h-144
		c-10.4,0-20.7,2.4-20.7,14.9s0,18.1,0,18.1H185.1L185.1,344.3z"/>
	<path id="Wallet-inner-shadow" serif:id="Wallet inner shadow" class="st2" d="M185.1,348v-14.7c0-11-6-18.3-17.2-18.3h-144
		c-10.4,0-16.6,4.1-16.6,16.4C7.1,337,7.5,342.5,8,348H185.1L185.1,348z"/>
	<path id="Desktop-shadow" serif:id="Desktop shadow" class="st3" d="M152.3,258.9h419.6c10.3,0,18.7,8.4,18.7,18.7v279.1
		c0,10.3-8.4,18.7-18.7,18.7H152.3c-10.3,0-18.7-8.4-18.7-18.7V277.5C133.6,267.3,142,258.9,152.3,258.9L152.3,258.9z"/>
	<path id="Desktop-background" serif:id="Desktop background" class="st2" d="M134.7,244.9h454.9c10.3,0,18.7,8.4,18.7,18.7v279.1
		c0,10.3-8.4,18.7-18.7,18.7H134.7c-10.3,0-18.7-8.4-18.7-18.7V263.5C116.1,253.1,124.3,244.9,134.7,244.9z"/>
	<path id="Desktop-base" serif:id="Desktop base" class="st2" d="M301.1,584.1h123.7c5.2,0,9.3,4.1,9.3,9.3v7.8
		c0,5.2-4.1,9.3-9.3,9.3H301.1c-5.2,0-9.3-4.1-9.3-9.3v-7.8C291.8,588.2,295.9,584.1,301.1,584.1z"/>
	<path id="Desktop-screen" serif:id="Desktop screen" class="st4" d="M137.7,253.6h450.4c6.2,0,11.2,5,11.2,11.2V505H126.5V264.8
		C126.5,258.7,131.5,253.6,137.7,253.6L137.7,253.6z"/>
	<circle id="Desktop-circle" serif:id="Desktop circle" class="st5" cx="362.2" cy="533.1" r="12.3">
	</circle>
	<path id="Arrow-line" serif:id="Arrow line" class="st6" d="M72,311.7c0-135.5,181.7-173.9,268.9-66.8"/>
	<path id="Arrow" class="st6" d="M329,241.3c0,0,12.3,6.7,14,5.2c1.7-1.5-1.7-14-1.7-14"/>
	<circle id="Coin-border" serif:id="Coin border" class="st7" cx="358.1" cy="291.9" r="33">
	</circle>
	<circle id="Coin-background" serif:id="Coin background" class="st8" cx="357.9" cy="291.7" r="27.4">
	</circle>
	<path id="Balance-shadow" serif:id="Balance shadow" class="st9" d="M454,466.3c-4.1,0-7.5-3.4-7.5-7.5v-99.3
		c0-0.7,0.2-1.7,0.4-2.4c-0.9-1.7-0.2-3.9,1.5-4.7c0.6-0.2,1.1-0.4,1.7-0.4h61.6c1.9,0,3.5,1.5,3.5,3.5c0,0.6-0.2,1.1-0.4,1.7
		c0.2,0.7,0.4,1.5,0.4,2.4v99.3c0,4.1-3.4,7.5-7.5,7.5H454V466.3z M288.6,466.2c-4.1,0-7.5-3.4-7.5-7.5V319.1c0-4.1,3.4-7.5,7.5-7.5
		h134.5c4.1,0,7.5,3.4,7.5,7.5v139.8c0,4.1-3.4,7.5-7.5,7.5L288.6,466.2L288.6,466.2z M237.7,466.2c-4.1,0-7.5-3.4-7.5-7.5V355.9
		c0-4.1,3.4-7.5,7.5-7.5h11.4c4.1,0,7.5,3.4,7.5,7.5v102.8c0,4.1-3.4,7.5-7.5,7.5H237.7L237.7,466.2z M454,343.2
		c-4.1,0-7.5-3.4-7.5-7.5v-16.6c0-4.1,3.4-7.5,7.5-7.5h53.6c4.1,0,7.5,3.4,7.5,7.5v16.6c0,4.1-3.4,7.5-7.5,7.5H454L454,343.2z
		 M237.7,343.2c-4.1,0-7.5-3.4-7.5-7.5v-16.6c0-4.1,3.4-7.5,7.5-7.5h11.4c4.1,0,7.5,3.4,7.5,7.5v16.6c0,4.1-3.4,7.5-7.5,7.5H237.7z"
		/>
	<path id="Sidebar-background" serif:id="Sidebar background" class="st10" d="M234.2,343.2h18.5c4.1,0,7.5,3.4,7.5,7.5v102.8
		c0,4.1-3.4,7.5-7.5,7.5h-18.5c-4.1,0-7.5-3.4-7.5-7.5V350.7C226.7,346.6,230.1,343.2,234.2,343.2L234.2,343.2z"/>
	<path id="Sidebar-logo-placeholder" serif:id="Sidebar logo placeholder" class="st11" d="M234.2,306.3h18.5c4.1,0,7.5,3.4,7.5,7.5
		v16.8c0,4.1-3.4,7.5-7.5,7.5h-18.5c-4.1,0-7.5-3.4-7.5-7.5v-16.8C226.7,309.6,230.1,306.3,234.2,306.3L234.2,306.3z"/>
	<path id="Sidebar-placeholder" serif:id="Sidebar placeholder" class="st12" d="M233.8,439.1c0-5.4,4.3-9.7,9.7-9.7
		c5.4,0,9.7,4.3,9.7,9.7c0,5.4-4.3,9.7-9.7,9.7C238.1,448.6,233.8,444.3,233.8,439.1z M237.3,416.2c0-3.4,2.8-6.2,6.2-6.2
		c3.4,0,6.2,2.8,6.2,6.2c0,3.4-2.8,6.2-6.2,6.2C239.9,422.3,237.3,419.7,237.3,416.2L237.3,416.2z M237.3,382.8
		c0-3.4,2.8-6.2,6.2-6.2c3.4,0,6.2,2.8,6.2,6.2c0,3.4-2.8,6.2-6.2,6.2C239.9,388.9,237.3,386.1,237.3,382.8L237.3,382.8z
		 M237.3,361.7c0-3.4,2.8-6.2,6.2-6.2c3.4,0,6.2,2.8,6.2,6.2s-2.8,6.2-6.2,6.2C239.9,367.8,237.3,365,237.3,361.7L237.3,361.7z"/>
	<path id="Main-content-background" serif:id="Main content background" class="st10" d="M285.1,306.3h141.4c4.1,0,7.5,3.4,7.5,7.5
		v139.8c0,4.1-3.4,7.5-7.5,7.5H285.1c-4.1,0-7.5-3.4-7.5-7.5V313.7C277.6,309.6,281,306.3,285.1,306.3z"/>
	<path id="Main-content-placeholder" serif:id="Main content placeholder" class="st12" d="M418.3,446.9c-0.9,0-1.7-0.7-1.7-1.7
		s0.7-1.7,1.7-1.7c0.9,0,1.7,0.7,1.7,1.7S419.3,446.9,418.3,446.9z M400.8,446.9c-0.9,0-1.7-0.7-1.7-1.7s0.7-1.7,1.7-1.7h10.4
		c0.9,0,1.7,0.7,1.7,1.7s-0.7,1.7-1.7,1.7H400.8z M374.5,446.9c-0.9,0-1.7-0.7-1.7-1.7s0.7-1.7,1.7-1.7h3.5c0.9,0,1.7,0.7,1.7,1.7
		s-0.7,1.7-1.7,1.7H374.5z M335.7,446.9c-0.9,0-1.7-0.7-1.7-1.7s0.7-1.7,1.7-1.7h15.9c0.9,0,1.7,0.7,1.7,1.7s-0.7,1.7-1.7,1.7H335.7
		z M312.9,446.9c-0.9,0-1.7-0.7-1.7-1.7s0.7-1.7,1.7-1.7h15.9c0.9,0,1.7,0.7,1.7,1.7s-0.7,1.7-1.7,1.7H312.9z M297,446.9
		c-0.9,0-1.7-0.7-1.7-1.7s0.7-1.7,1.7-1.7h8.8c0.9,0,1.7,0.7,1.7,1.7s-0.7,1.7-1.7,1.7H297z M418.3,429.4c-0.9,0-1.7-0.7-1.7-1.7
		s0.7-1.7,1.7-1.7c0.9,0,1.7,0.7,1.7,1.7S419.3,429.4,418.3,429.4z M400.8,429.4c-0.9,0-1.7-0.7-1.7-1.7s0.7-1.7,1.7-1.7h10.6
		c0.9,0,1.7,0.7,1.7,1.7s-0.7,1.7-1.7,1.7H400.8z M374.5,429.4c-0.9,0-1.7-0.7-1.7-1.7s0.7-1.7,1.7-1.7h3.5c0.9,0,1.7,0.7,1.7,1.7
		s-0.7,1.7-1.7,1.7H374.5z M335.7,429.4c-0.9,0-1.7-0.7-1.7-1.7s0.7-1.7,1.7-1.7h15.9c0.9,0,1.7,0.7,1.7,1.7s-0.7,1.7-1.7,1.7H335.7
		z M312.9,429.4c-0.9,0-1.7-0.7-1.7-1.7s0.7-1.7,1.7-1.7h15.9c0.9,0,1.7,0.7,1.7,1.7s-0.7,1.7-1.7,1.7H312.9z M297,429.4
		c-0.9,0-1.7-0.7-1.7-1.7s0.7-1.7,1.7-1.7h8.8c0.9,0,1.7,0.7,1.7,1.7s-0.7,1.7-1.7,1.7H297z M418.3,411.9c-0.9,0-1.7-0.7-1.7-1.7
		c0-0.9,0.7-1.7,1.7-1.7c0.9,0,1.7,0.7,1.7,1.7C420,411.1,419.3,411.9,418.3,411.9z M400.8,411.9c-0.9,0-1.7-0.7-1.7-1.7
		c0-0.9,0.7-1.7,1.7-1.7h10.4c0.9,0,1.7,0.7,1.7,1.7c0,0.9-0.7,1.7-1.7,1.7H400.8z M374.5,411.9c-0.9,0-1.7-0.7-1.7-1.7
		c0-0.9,0.7-1.7,1.7-1.7h3.5c0.9,0,1.7,0.7,1.7,1.7c0,0.9-0.7,1.7-1.7,1.7H374.5z M335.7,411.9c-0.9,0-1.7-0.7-1.7-1.7
		c0-0.9,0.7-1.7,1.7-1.7h15.9c0.9,0,1.7,0.7,1.7,1.7c0,0.9-0.7,1.7-1.7,1.7H335.7z M312.9,411.9c-0.9,0-1.7-0.7-1.7-1.7
		c0-0.9,0.7-1.7,1.7-1.7h15.9c0.9,0,1.7,0.7,1.7,1.7c0,0.9-0.7,1.7-1.7,1.7H312.9z M297,411.9c-0.9,0-1.7-0.7-1.7-1.7
		c0-0.9,0.7-1.7,1.7-1.7h8.8c0.9,0,1.7,0.7,1.7,1.7c0,0.9-0.7,1.7-1.7,1.7H297z M418.3,394.1c-0.9,0-1.7-0.7-1.7-1.7
		s0.7-1.7,1.7-1.7c0.9,0,1.7,0.7,1.7,1.7S419.3,394.1,418.3,394.1z M400.8,394.1c-0.9,0-1.7-0.7-1.7-1.7s0.7-1.7,1.7-1.7h10.4
		c0.9,0,1.7,0.7,1.7,1.7s-0.7,1.7-1.7,1.7H400.8z M374.5,394.1c-0.9,0-1.7-0.7-1.7-1.7s0.7-1.7,1.7-1.7h3.5c0.9,0,1.7,0.7,1.7,1.7
		s-0.7,1.7-1.7,1.7H374.5z M335.7,394.1c-0.9,0-1.7-0.7-1.7-1.7s0.7-1.7,1.7-1.7h15.9c0.9,0,1.7,0.7,1.7,1.7s-0.7,1.7-1.7,1.7H335.7
		z M312.9,394.1c-0.9,0-1.7-0.7-1.7-1.7s0.7-1.7,1.7-1.7h15.9c0.9,0,1.7,0.7,1.7,1.7s-0.7,1.7-1.7,1.7H312.9z M297,394.1
		c-0.9,0-1.7-0.7-1.7-1.7s0.7-1.7,1.7-1.7h8.8c0.9,0,1.7,0.7,1.7,1.7s-0.7,1.7-1.7,1.7H297z M418.3,376.6c-0.9,0-1.7-0.7-1.7-1.7
		c0-0.9,0.7-1.7,1.7-1.7c0.9,0,1.7,0.7,1.7,1.7C420.2,375.8,419.3,376.6,418.3,376.6z M400.8,376.6c-0.9,0-1.7-0.7-1.7-1.7
		c0-0.9,0.7-1.7,1.7-1.7h10.6c0.9,0,1.7,0.7,1.7,1.7c0,0.9-0.7,1.7-1.7,1.7H400.8z M374.5,376.6c-0.9,0-1.7-0.7-1.7-1.7
		c0-0.9,0.7-1.7,1.7-1.7h3.5c0.9,0,1.7,0.7,1.7,1.7c0,0.9-0.7,1.7-1.7,1.7H374.5z M335.7,376.6c-0.9,0-1.7-0.7-1.7-1.7
		c0-0.9,0.7-1.7,1.7-1.7h15.9c0.9,0,1.7,0.7,1.7,1.7c0,0.9-0.7,1.7-1.7,1.7H335.7z M312.9,376.6c-0.9,0-1.7-0.7-1.7-1.7
		c0-0.9,0.7-1.7,1.7-1.7h15.9c0.9,0,1.7,0.7,1.7,1.7c0,0.9-0.7,1.7-1.7,1.7H312.9z M297,376.6c-0.9,0-1.7-0.7-1.7-1.7
		c0-0.9,0.7-1.7,1.7-1.7h8.8c0.9,0,1.7,0.7,1.7,1.7c0,0.9-0.7,1.7-1.7,1.7H297z M418.3,359.1c-0.9,0-1.7-0.7-1.7-1.7
		s0.7-1.7,1.7-1.7c0.9,0,1.7,0.7,1.7,1.7C420.2,358.3,419.3,359.1,418.3,359.1z M400.8,359.1c-0.9,0-1.7-0.7-1.7-1.7
		s0.7-1.7,1.7-1.7h10.6c0.9,0,1.7,0.7,1.7,1.7s-0.7,1.7-1.7,1.7H400.8z M374.5,359.1c-0.9,0-1.7-0.7-1.7-1.7s0.7-1.7,1.7-1.7h3.5
		c0.9,0,1.7,0.7,1.7,1.7s-0.7,1.7-1.7,1.7H374.5z M335.7,359.1c-0.9,0-1.7-0.7-1.7-1.7s0.7-1.7,1.7-1.7h15.9c0.9,0,1.7,0.7,1.7,1.7
		s-0.7,1.7-1.7,1.7H335.7z M312.9,359.1c-0.9,0-1.7-0.7-1.7-1.7s0.7-1.7,1.7-1.7h15.9c0.9,0,1.7,0.7,1.7,1.7s-0.7,1.7-1.7,1.7H312.9
		z M297,359.1c-0.9,0-1.7-0.7-1.7-1.7s0.7-1.7,1.7-1.7h8.8c0.9,0,1.7,0.7,1.7,1.7s-0.7,1.7-1.7,1.7H297z M418.3,341.5
		c-0.9,0-1.7-0.7-1.7-1.7s0.7-1.7,1.7-1.7c0.9,0,1.7,0.7,1.7,1.7S419.3,341.5,418.3,341.5L418.3,341.5z M400.8,341.5
		c-0.9,0-1.7-0.7-1.7-1.7s0.7-1.7,1.7-1.7h10.4c0.9,0,1.7,0.7,1.7,1.7s-0.7,1.7-1.7,1.7H400.8z M374.5,341.5c-0.9,0-1.7-0.7-1.7-1.7
		s0.7-1.7,1.7-1.7h3.5c0.9,0,1.7,0.7,1.7,1.7s-0.7,1.7-1.7,1.7H374.5z M335.7,341.5c-0.9,0-1.7-0.7-1.7-1.7s0.7-1.7,1.7-1.7h15.9
		c0.9,0,1.7,0.7,1.7,1.7s-0.7,1.7-1.7,1.7H335.7z M312.9,341.5c-0.9,0-1.7-0.7-1.7-1.7s0.7-1.7,1.7-1.7h15.9c0.9,0,1.7,0.7,1.7,1.7
		s-0.7,1.7-1.7,1.7H312.9z M297,341.5c-0.9,0-1.7-0.7-1.7-1.7s0.7-1.7,1.7-1.7h8.8c0.9,0,1.7,0.7,1.7,1.7s-0.7,1.7-1.7,1.7H297z
		 M418.3,324c-0.9,0-1.7-0.7-1.7-1.7c0-0.9,0.7-1.7,1.7-1.7c0.9,0,1.7,0.7,1.7,1.7C420.2,323.2,419.3,324,418.3,324z M400.8,324
		c-0.9,0-1.7-0.7-1.7-1.7c0-0.9,0.7-1.7,1.7-1.7h10.4c0.9,0,1.7,0.7,1.7,1.7c0,0.9-0.7,1.7-1.7,1.7H400.8z M374.5,324
		c-0.9,0-1.7-0.7-1.7-1.7c0-0.9,0.7-1.7,1.7-1.7h3.5c0.9,0,1.7,0.7,1.7,1.7c0,0.9-0.7,1.7-1.7,1.7H374.5z M335.7,324
		c-0.9,0-1.7-0.7-1.7-1.7c0-0.9,0.7-1.7,1.7-1.7h15.9c0.9,0,1.7,0.7,1.7,1.7c0,0.9-0.7,1.7-1.7,1.7H335.7z M312.9,324
		c-0.9,0-1.7-0.7-1.7-1.7c0-0.9,0.7-1.7,1.7-1.7h15.9c0.9,0,1.7,0.7,1.7,1.7c0,0.9-0.7,1.7-1.7,1.7H312.9z M297,324
		c-0.9,0-1.7-0.7-1.7-1.7c0-0.9,0.7-1.7,1.7-1.7h8.8c0.9,0,1.7,0.7,1.7,1.7c0,0.9-0.7,1.7-1.7,1.7H297z"/>
	<path id="Content-background" serif:id="Content background" class="st10" d="M450.4,346.7h60.6c4.1,0,7.5,3.4,7.5,7.5v99.3
		c0,4.1-3.4,7.5-7.5,7.5h-60.6c-4.1,0-7.5-3.4-7.5-7.5v-99.3C443,350.1,446.3,346.7,450.4,346.7L450.4,346.7z"/>
	<path id="Content-placeholder-3" serif:id="Content placeholder 3" class="st12" d="M465.7,439.8c0-1.9,1.5-3.5,3.5-3.5
		s3.5,1.5,3.5,3.5c0,2.1-1.5,3.5-3.5,3.5C467.4,443.4,465.7,441.9,465.7,439.8z M453.4,432.9c0-4.9,3.9-8.8,8.8-8.8
		c4.9,0,8.8,3.9,8.8,8.8c0,0.2,0,0.4,0,0.6c-3-1.5-6.7-0.2-8.2,3c-0.7,1.7-0.7,3.5,0,5.2c-0.2,0-0.4,0-0.6,0
		C457.5,441.7,453.4,437.8,453.4,432.9L453.4,432.9z M478,441.7c-0.9,0-1.7-0.7-1.7-1.7s0.7-1.7,1.7-1.7h24.6c0.9,0,1.7,0.7,1.7,1.7
		s-0.7,1.7-1.7,1.7H478z M478,436.5c-0.9,0-1.7-0.7-1.7-1.7s0.7-1.7,1.7-1.7h10.4c0.9,0,1.7,0.7,1.7,1.7s-0.7,1.7-1.7,1.7H478z
		 M465.7,406.4c0-1.9,1.5-3.5,3.5-3.5s3.5,1.5,3.5,3.5c0,2.1-1.5,3.5-3.5,3.5C467.4,410,465.7,408.5,465.7,406.4z M478,408.3
		c-0.9,0-1.7-0.7-1.7-1.7c0-0.9,0.7-1.7,1.7-1.7h24.6c0.9,0,1.7,0.7,1.7,1.7c0,0.9-0.7,1.7-1.7,1.7H478z M453.4,399.5
		c0-4.9,3.9-8.8,8.8-8.8c4.9,0,8.8,3.9,8.8,8.8c0,0.2,0,0.4,0,0.6c-0.7-0.4-1.7-0.6-2.6-0.6c-3.4,0-6.2,2.8-6.2,6.2
		c0,0.9,0.2,1.9,0.6,2.6c-0.2,0-0.4,0-0.6,0C457.3,408.3,453.4,404.4,453.4,399.5z M478,403.1c-0.9,0-1.7-0.7-1.7-1.7
		c0-0.9,0.7-1.7,1.7-1.7h10.4c0.9,0,1.7,0.7,1.7,1.7c0,0.9-0.7,1.7-1.7,1.7H478z"/>
	<path id="Content-placeholder-2" serif:id="Content placeholder 2" class="st12" d="M458.8,360.9h15.9c0.9,0,1.7,0.7,1.7,1.7
		s-0.7,1.7-1.7,1.7h-15.9c-0.9,0-1.7-0.7-1.7-1.7C456.9,361.7,457.9,360.9,458.8,360.9z"/>
	<path id="Content-placeholder" serif:id="Content placeholder" class="st12" d="M490.3,360.9h15.9c0.9,0,1.7,0.7,1.7,1.7
		s-0.7,1.7-1.7,1.7h-15.9c-0.9,0-1.7-0.7-1.7-1.7S489.4,360.9,490.3,360.9z"/>
	<path id="Content-border" serif:id="Content border" class="st13" d="M455.3,373v-1.7h56.3v1.7H455.3L455.3,373z M481.6,369.7v-14
		h1.7v14H481.6z"/>
	<path id="Placeholder-shadow" serif:id="Placeholder shadow" class="st14" d="M450.4,306.3h60.6c4.1,0,7.5,3.4,7.5,7.5v16.8
		c0,4.1-3.4,7.5-7.5,7.5h-60.6c-4.1,0-7.5-3.4-7.5-7.5v-16.8C443,309.6,446.3,306.3,450.4,306.3z"/>
	<path id="Placeholder" class="st15" d="M458.8,327.3c-0.9,0-1.7-0.7-1.7-1.7s0.7-1.7,1.7-1.7h33.4c0.9,0,1.7,0.7,1.7,1.7
		s-0.7,1.7-1.7,1.7H458.8z M458.8,320.4c-0.9,0-1.7-0.7-1.7-1.7s0.7-1.7,1.7-1.7h15.9c0.9,0,1.7,0.7,1.7,1.7s-0.7,1.7-1.7,1.7H458.8
		z"/>
	<circle id="Coin-border1" serif:id="Coin border" class="st7" cx="76.3" cy="330.9" r="33">
	</circle>
	<circle id="Coin-background1" serif:id="Coin background" class="st8" cx="76.1" cy="330.7" r="27.4">
	</circle>
	<path id="Wallet-base-shadow-down" serif:id="Wallet base shadow down" class="st16" d="M3.2,454.2c0,9.1,4.9,19.6,20.7,19.6h146.5
		c10.1,0,19.6-6.7,19.6-20.7v-91.4c0-7.5-3-18.3-18.3-18.3H19c-4.5,0-9.7-3.7-9.7-8.6c0-1.5-6.2-2.8-6.2,2.4
		C3.2,337.2,3.2,454.2,3.2,454.2z"/>
	<path id="Wallet-base-shadow-up" serif:id="Wallet base shadow up" class="st1" d="M3.2,442.6c0,9.1,4.9,19.6,20.7,19.6h146.5
		c10.1,0,19.6-6.7,19.6-20.7V352c0-7.5-3-18.3-18.3-18.3H19c-4.5,0-10.8-3.4-10.8-8.2c0.2-3.9-5-5.6-5-0.2S3.2,433.5,3.2,442.6z"/>
	<path id="Wallet-background-glass" serif:id="Wallet background glass" class="st2" d="M3.2,446.2c0,9.1,4.9,19.6,20.7,19.6h146.5
		c10.1,0,19.6-6.7,19.6-20.7v-89.6c0-7.5-3-18.3-18.3-18.3H19c-8.8,0-14.7-6.2-14.7-11c0-0.6-1.3-1.1-1.3-1.1S3.2,437,3.2,446.2z"/>
	<path id="Wallet-dotted" serif:id="Wallet dotted" class="st17" d="M5.8,447.1c1.9,2.8,4.3,5.2,6.9,7.3c2.6,1.1-0.9,2.4,11.2,2.4
		h137.9c7.8,0,17.2-5.4,17.2-13.4v-81.7c0-3.7-3.2-12.1-11-12.1H17.7c-3.9,0-7.5-2.1-9.7-5.2c-0.2-0.2,1.7,1.7,1.1,0.9
		c-0.6-0.7-3.5-4.5-3.7-6.5"/>
	<path id="Wallet-border-shadow" serif:id="Wallet border shadow" class="st18" d="M192.4,392.1c0.2-2.4-1.7-4.7-4.1-4.9
		c-0.2,0-0.6,0-0.7,0h-18.3c-11.2,0.4-19.8,9.7-19.6,20.7c0,14,10.6,20.7,19.6,20.7h18.3c2.6,0.2,4.7-1.9,4.9-4.3c0-0.2,0-0.4,0-0.6
		V392.1z"/>
	<path id="Wallet-border-glass" serif:id="Wallet border glass" class="st1" d="M194.8,388.3c0.2-2.4-1.7-4.7-4.1-4.9
		c-0.2,0-0.6,0-0.7,0h-19.6c-11.2,0.4-19.8,9.7-19.6,20.7c0,14,10.6,20.7,19.6,20.7h19.6c2.6,0.2,4.7-1.9,4.9-4.3c0-0.2,0-0.4,0-0.6
		V388.3z"/>
	<path id="Wallet-border" serif:id="Wallet border" class="st19" d="M194.8,390.6c0.2-2.4-1.7-4.5-4.1-4.7c-0.2,0-0.6,0-0.7,0h-18.3
		c-11.2,0.4-19.8,9.3-19.6,20.2c0,13.6,10.6,20.2,19.6,20.2h18.3c2.6,0.2,4.7-1.9,4.9-4.3c0-0.2,0-0.4,0-0.6V390.6z"/>
	<ellipse id="Wallet-circle" serif:id="Wallet circle" class="st20" cx="164.9" cy="404.8" rx="5.6" ry="5.4">
	</ellipse>
	
		<ellipse id="Logo-circle" serif:id="Logo circle" transform="matrix(7.088903e-02 -0.9975 0.9975 7.088903e-02 -311.7946 472.5604)" class="st21" cx="97.8" cy="403.7" rx="36" ry="36">
	</ellipse>
	<path id="Triangle-shadow" serif:id="Triangle shadow" class="st22" d="M80.6,417.1h33.6l-16.6-17.4
		C97.6,399.7,80.6,417.1,80.6,417.1z"/>
</g>
</svg>
