<?xml version="1.0" encoding="utf-8"?>
<!-- Generator: Adobe Illustrator 23.0.3, SVG Export Plug-In . SVG Version: 6.00 Build 0)  -->
<svg version="1.1" id="Layer_1" xmlns:serif="http://www.serif.com/"
	 xmlns="http://www.w3.org/2000/svg" xmlns:xlink="http://www.w3.org/1999/xlink" x="0px" y="0px" viewBox="0 0 612 792"
	 style="enable-background:new 0 0 612 792;" xml:space="preserve">
<style type="text/css">
	.st0{fill:#404853;}
	.st1{fill-rule:evenodd;clip-rule:evenodd;fill:#E4B22D;}
	.st2{fill-rule:evenodd;clip-rule:evenodd;fill:#D4A527;}
	.st3{fill:#AD733B;}
	.st4{fill:#23242D;}
	.st5{fill:#C9292C;}
	.st6{clip-path:url(#SVGID_2_);}
	.st7{fill:#606B78;}
</style>
<path id="Bubbles" class="st0" d="M575.9,27.2c-11.1,0-20,9-20,20s9,20,20,20c11.1,0,20-9,20-20S587,27.2,575.9,27.2z M57.5,152.8
	c-19.9,0-36.1,16.1-36.1,36.1S37.5,225,57.5,225s36.1-16.1,36.1-36.1S77.4,152.8,57.5,152.8z M40.1,716.7
	c-13.3,0-24.1,10.8-24.1,24.1s10.8,24.1,24.1,24.1s24.1-10.8,24.1-24.1S53.4,716.7,40.1,716.7z M374.1,585.7c-2.9,0-5.3,2.4-5.3,5.3
	c0,2.9,2.4,5.3,5.3,5.3c2.9,0,5.3-2.4,5.3-5.3C379.5,588.2,377.1,585.7,374.1,585.7z"/>
<circle id="Second-coin" serif:id="Second coin" class="st1" cx="269.7" cy="145.1" r="45.1">
</circle>
<circle id="Second-coin-bg" serif:id="Second coin bg" class="st2" cx="270.1" cy="144.7" r="37.6">
</circle>
<path id="Second-coin-logo" serif:id="Second coin logo" class="st3" d="M265.2,150.5l5.2-12.9l5.2,12.9H265.2z"/>
<circle id="Coin" class="st1" cx="221.5" cy="135.4" r="45.1"/>
<circle id="Coin-background" serif:id="Coin background" class="st2" cx="221.9" cy="135.1" r="37.6">
</circle>
<path id="Shape" class="st4" d="M405.6,372.7c14.4-30,21.9-63,21.9-97V188c0-6.9-4.6-13.1-11.2-15.1L305.1,140c-2.9-0.9-6-0.9-8.8,0
	L185,173c-6.6,2-11.2,8.2-11.2,15.1v87.8c0,46.4,14,90.8,40.4,128.6c20.5,29.3,47.9,53.5,79.2,69.9c1.7,0.9,3.4,1.4,5.2,1.7
	C312.1,424.5,353.5,384.4,405.6,372.7z"/>
<path id="Shape-background" serif:id="Shape background" class="st5" d="M404.2,362.4c15.4-30.8,23.4-64.9,23.4-100v-87.8
	c0-6.9-4.6-13.1-11.2-15.1l-111.3-32.9c-2.9-0.9-6-0.9-8.8,0L185,159.6c-6.6,2-11.2,8.2-11.2,15.1v87.8c0,46.4,14,90.8,40.4,128.6
	c20.5,29.3,47.9,53.5,79.2,69.9c1.9,1,3.9,1.6,6,1.7C313.4,413,353.6,374.3,404.2,362.4z"/>
<g id="Logo">
	<g>
		<defs>
			<path id="SVGID_1_" d="M245.3,212.6c0,0-0.3,0.3-0.5,0.4c-18.5,15.9-30.3,39.5-30.3,65.9c0,47.9,38.9,86.8,86.8,86.8
				c25.6,0,48.6-11.1,64.5-28.7c0.1-0.2,0.4-0.5,0.4-0.5L245.3,212.6L245.3,212.6z"/>
		</defs>
		<clipPath id="SVGID_2_">
			<use xlink:href="#SVGID_1_"  style="overflow:visible;"/>
		</clipPath>
		<g class="st6">
			<g>
				<defs>
					<rect id="SVGID_3_" x="214.5" y="212.6" width="151.8" height="153.1"/>
				</defs>
				<clipPath id="SVGID_4_">
					<use xlink:href="#SVGID_3_"  style="overflow:visible;"/>
				</clipPath>
			</g>
		</g>
	</g>
</g>
<path id="Checkmark" class="st7" d="M466.3,476.1l-36.3,35.3L413,495l-12.1,11.8l29,28.2l48.5-47L466.3,476.1z"/>
<path id="Checkmark-border" serif:id="Checkmark border" class="st7" d="M439.6,412c-51.6,0-93.5,42-93.5,93.5s42,93.5,93.5,93.5
	s93.5-42,93.5-93.5S491.2,412,439.6,412z M439.6,575c-38.5,0-69.5-31-69.5-69.5s31-69.5,69.5-69.5s69.5,31,69.5,69.5
	S478.1,575,439.6,575z"/>
<path id="Main-shape" serif:id="Main shape" class="st7" d="M508.6,82.2L323.9,27.7c-14.4-4.3-29.4-4.3-43.8,0L95.4,82.2
	c-13.6,4-23.3,16.8-23.3,31v153.4c0,71.1,21.1,139.5,60.9,197.8c39,56.9,93,100.8,156.6,126.7c4,1.6,8,2.4,12.3,2.4
	c4,0,8.3-0.8,12.3-2.4c22.2-9.1,43.3-20.3,63.1-33.7c-5.3-6.9-9.4-14.7-12.3-23c-18.7,12.8-39,23.8-60.4,32.6
	c-1.6,0.5-3.5,0.5-4.8,0c-58.8-24.1-109-64.7-145.1-117.3C117.6,396,98.1,332.7,98.1,266.9V113.5c0-2.9,1.9-5.3,4.5-6.1l184.7-54.5
	c4.8-1.3,9.6-2.1,14.7-2.1c4.8,0,9.9,0.8,14.7,2.1l184.7,54.5c2.7,0.8,4.5,3.5,4.5,6.1v153.4c0,59.1-15.8,116.3-46,166.5
	c8.6,2.4,16.6,5.9,23.8,10.7c31.5-53.7,48.1-114.4,48.1-177.5V113.5C531.8,99.1,522.2,86.3,508.6,82.2L508.6,82.2z"/>
</svg>
