<?xml version="1.0" encoding="utf-8"?>
<!-- Generator: Adobe Illustrator 23.0.3, SVG Export Plug-In . SVG Version: 6.00 Build 0)  -->
<svg version="1.1" id="Layer_1" xmlns="http://www.w3.org/2000/svg" xmlns:xlink="http://www.w3.org/1999/xlink" x="0px" y="0px"
	 viewBox="0 0 50 43" style="enable-background:new 0 0 50 43;" xml:space="preserve">
<style type="text/css">
	.st0{clip-path:url(#SVGID_2_);}
	.st1{display:none;}
	.st2{fill:#C9D0DF;}
</style>
<g>
	<defs>
		<rect id="SVGID_1_" width="50" height="43"/>
	</defs>
	<clipPath id="SVGID_2_">
		<use xlink:href="#SVGID_1_"  style="display:none;overflow:visible;"/>
	</clipPath>
	<g id="Canvas" class="st0">
		<rect class="st1" width="50" height="43"/>
		<path id="Forma_1" class="st2" d="M1.9,39.9 M47.1,39.9 M40.4,22.1l1.7-0.8l-0.8-1.9l0.5-0.4c0.3-0.3,0.6-0.6,0.8-0.9l0.4-0.5
			l2.1,0.6l0.6-1.8l-2-0.9l0-0.6c0-0.4,0-0.8-0.1-1.2l-0.1-0.6l1.9-1.1l-0.8-1.7l-2,0.8l-0.4-0.5c-0.3-0.3-0.6-0.6-0.9-0.8l-0.5-0.4
			l0.6-2.1l-1.8-0.6l-0.9,2l-0.6,0c-0.4,0-0.8,0-1.2,0.1l-0.6,0.1l-1.1-1.9L33.6,8l0.8,2L34,10.4c-0.3,0.3-0.6,0.6-0.8,0.9l-0.4,0.4
			l-1.5-1c0.1-0.1,1.1-1.1,1.1-1.1l-1-2.4L36,4.9l1.3,2.3c0.1,0,0.2,0,0.3,0l1-2.4l4.9,1.7L42.8,9c0.1,0.1,0.2,0.1,0.3,0.2l2.4-1
			l2.2,4.6l-2.3,1.3c0,0.1,0,0.2,0,0.3l2.4,1l-1.7,4.9l-2.5-0.7c-0.1,0.1-0.1,0.2-0.2,0.3l0.9,2.3l-3.2,1.5L40.4,22.1z M36.7,18.1
			c-1.9-0.7-2.9-2.7-2.2-4.6s2.7-2.9,4.6-2.2s2.9,2.7,2.2,4.6c-0.5,1.4-1.9,2.4-3.4,2.4C37.5,18.3,37.1,18.3,36.7,18.1z M36.1,14.1
			c-0.3,1,0.2,2,1.1,2.4c1,0.3,2-0.2,2.4-1.1s-0.2-2-1.1-2.4c-0.2-0.1-0.4-0.1-0.6-0.1C37.1,12.9,36.4,13.4,36.1,14.1z"/>
	</g>
</g>
<path id="Forma_1_1_" class="st2" d="M73.9-10.5 M28.7-10.5 M35.4,6.9l-1.7,1l0.8,2L34,10.3c-0.3,0.3-0.6,0.6-0.8,0.9l-0.4,0.5
	l-2.1-0.6l-0.6,1.8l2,0.9l0,0.6c0,0.4,0,0.8,0.1,1.2l0.1,0.6l-1.9,1.1l0.8,1.7l2-0.8l0.4,0.5c0.3,0.3,0.6,0.6,0.9,0.8l0.5,0.4
	l-0.6,2.1l1.8,0.6l0.9-2l0.6,0c0.4,0,0.8,0,1.2-0.1l0.6-0.1l1.1,1.9l1.7-0.8l-0.8-1.9l0.7-0.5c0.3-0.3,0.7-1,1-1.3l0.1,0.5l1.4,0.5
	c-0.1,0.1-1.1,1.1-1.1,1.1l1,2.4l-4.7,2.2l-1.3-2.3c-0.1,0-0.2,0-0.3,0l-1,2.4l-4.9-1.7l0.7-2.5c-0.1-0.1-0.2-0.1-0.3-0.2l-2.4,1
	L28,16.5l2.3-1.3c0-0.1,0-0.2,0-0.3l-2.4-1L29.6,9l2.5,0.7c0.1-0.1,0.1-0.2,0.2-0.3l-0.9-2.3l3.2-1.6L35.4,6.9z M39.1,11.3
	c1.9,0.7,2.9,2.7,2.2,4.6s-2.7,2.9-4.6,2.2s-2.9-2.7-2.2-4.6c0.5-1.4,1.9-2.4,3.4-2.4C38.3,11.1,38.7,11.1,39.1,11.3z M39.7,15.3
	c0.3-1-0.2-2-1.1-2.4c-1-0.3-2,0.2-2.4,1.1s0.2,2,1.1,2.4c0.2,0.1,0.4,0.1,0.6,0.1C38.7,16.5,39.4,16,39.7,15.3z"/>
</svg>
