<?xml version="1.0" encoding="utf-8"?>
<!-- Generator: Adobe Illustrator 23.0.3, SVG Export Plug-In . SVG Version: 6.00 Build 0)  -->
<svg version="1.1" id="Layer_1" xmlns="http://www.w3.org/2000/svg" xmlns:xlink="http://www.w3.org/1999/xlink" x="0px" y="0px"
	 viewBox="0 0 50 43" style="enable-background:new 0 0 50 43;" xml:space="preserve">
<style type="text/css">
	.st0{clip-path:url(#SVGID_2_);}
	.st1{fill:#C9D0DF;}
</style>
<g>
	<defs>
		<rect id="SVGID_1_" width="50" height="43"/>
	</defs>
	<clipPath id="SVGID_2_">
		<use xlink:href="#SVGID_1_"  style="overflow:visible;"/>
	</clipPath>
	<g id="Canvas" class="st0">
		<rect width="50" height="43"/>
		<path id="Forma_1" class="st1" d="M2,40 M47.1,40 M40.5,22.3l1.7-0.8l-0.8-1.9l0.5-0.4c0.3-0.3,0.6-0.6,0.8-0.9l0.4-0.5l2.1,0.6
			l0.6-1.8l-2-0.9l0-0.6c0-0.4,0-0.8-0.1-1.2l-0.1-0.6l1.9-1.1l-0.8-1.7l-2,0.8l-0.4-0.5c-0.3-0.3-0.6-0.6-0.9-0.8l-0.5-0.4l0.6-2.1
			L39.7,7l-0.9,2l-0.6,0C37.8,9,37.4,9,37,9l-0.6,0.1l-1.1-1.9l-1.7,0.8l0.8,2L34,10.5c-0.3,0.3-0.6,0.6-0.8,0.9l-0.4,0.4l-1.6-1
			c0.1-0.1,1.1-1.1,1.1-1.1l-1-2.4L36.1,5l1.3,2.3c0.1,0,0.2,0,0.3,0l1-2.4l4.9,1.7l-0.7,2.5c0.1,0.1,0.2,0.1,0.3,0.2l2.4-1l2.2,4.6
			l-2.3,1.3c0,0.1,0,0.2,0,0.3l2.4,1l-1.7,4.9l-2.5-0.7c-0.1,0.1-0.1,0.2-0.2,0.3l1,2.4l-3.2,1.6L40.5,22.3z M36.8,18.2
			c-1.9-0.7-2.9-2.7-2.2-4.6s2.7-2.9,4.6-2.2s2.9,2.7,2.2,4.6c-0.5,1.4-1.9,2.4-3.4,2.4C37.6,18.4,37.2,18.3,36.8,18.2z M36.2,14.2
			c-0.3,1,0.2,2,1.1,2.4c1,0.3,2-0.2,2.4-1.1s-0.2-2-1.1-2.4C38.4,13,38.2,13,38,13C37.2,13,36.5,13.5,36.2,14.2z M35.4,7.2
			l-1.7,0.8l0.8,1.9L34,10.4c-0.3,0.3-0.6,0.6-0.8,0.9l-0.4,0.5l-2.1-0.6L30.1,13l2,0.9l0,0.6c0,0.4,0,0.8,0.1,1.2l0.1,0.6l-1.9,1.1
			l0.8,1.7l2-0.8l0.4,0.5c0.3,0.3,0.6,0.6,0.9,0.8l0.5,0.4l-0.6,2.1l1.8,0.6l0.9-2l0.6,0c0.4,0,0.8,0,1.2-0.1l0.6-0.1l1.1,1.9
			l1.7-0.8l-0.8-1.9l0.5-0.4c0.3-0.3,0.6-0.6,0.8-0.9l0.4-0.5l0.7,2c-0.1,0.1-0.2,0.2-0.2,0.3l1,2.4l-4.7,2.2l-1.3-2.3
			c-0.1,0-0.2,0-0.3,0l-1,2.4L32.3,23l0.7-2.5c-0.1-0.1-0.2-0.1-0.3-0.2l-2.4,1l-2.2-4.6l2.3-1.3c0-0.1,0-0.2,0-0.3l-2.4-1l1.7-4.9
			l2.5,0.7c0.1-0.1,0.1-0.2,0.2-0.3l-1-2.4l3.2-1.6L35.4,7.2z"/>
	</g>
</g>
</svg>
