<svg id="svg" version="1.1" xmlns="http://www.w3.org/2000/svg" xmlns:xlink="http://www.w3.org/1999/xlink" width="400" height="119.97177134791814" viewBox="0, 0, 400,119.97177134791814"><g id="svgg"><path id="path0" d="M50.708 18.946 C 50.044 18.984,49.500 19.086,49.500 19.174 C 49.500 19.262,49.125 19.333,48.667 19.333 C 48.208 19.333,47.833 19.400,47.833 19.481 C 47.833 19.562,47.346 19.680,46.750 19.744 C 46.154 19.808,45.667 19.929,45.667 20.013 C 45.667 20.098,45.404 20.167,45.083 20.167 C 44.762 20.167,44.500 20.233,44.500 20.314 C 44.500 20.396,44.164 20.513,43.754 20.574 C 43.344 20.636,42.964 20.757,42.911 20.843 C 42.857 20.929,42.631 21.000,42.407 21.000 C 42.183 21.000,42.000 21.066,42.000 21.146 C 42.000 21.226,41.757 21.340,41.460 21.400 C 40.774 21.537,40.000 21.877,40.000 22.041 C 40.000 22.110,39.896 22.167,39.769 22.167 C 39.642 22.167,39.323 22.279,39.061 22.416 C 38.798 22.553,38.452 22.665,38.292 22.666 C 38.131 22.666,38.000 22.742,38.000 22.833 C 38.000 22.925,37.897 23.000,37.770 23.000 C 37.644 23.000,37.447 23.113,37.333 23.250 C 37.219 23.387,36.985 23.500,36.813 23.500 C 36.641 23.500,36.500 23.575,36.500 23.667 C 36.500 23.758,36.387 23.833,36.250 23.833 C 36.112 23.833,36.000 23.908,36.000 24.000 C 36.000 24.092,35.893 24.167,35.762 24.167 C 35.631 24.167,35.425 24.263,35.304 24.381 C 35.182 24.499,34.821 24.726,34.500 24.886 C 33.616 25.325,33.287 25.548,32.914 25.958 C 32.726 26.165,32.449 26.333,32.298 26.333 C 32.146 26.333,31.976 26.479,31.919 26.658 C 31.863 26.837,31.689 27.024,31.533 27.074 C 31.377 27.124,31.050 27.334,30.805 27.541 C 30.560 27.747,30.151 28.067,29.895 28.250 C 29.223 28.731,25.500 32.473,25.500 32.667 C 25.500 32.757,25.275 33.045,25.000 33.308 C 24.725 33.571,24.500 33.904,24.500 34.048 C 24.500 34.193,24.366 34.353,24.203 34.405 C 24.039 34.457,23.763 34.743,23.590 35.041 C 23.416 35.339,23.148 35.696,22.994 35.833 C 22.840 35.971,22.661 36.252,22.596 36.458 C 22.531 36.665,22.408 36.833,22.322 36.833 C 22.237 36.833,22.167 36.946,22.167 37.083 C 22.167 37.221,22.092 37.333,22.000 37.333 C 21.908 37.333,21.833 37.486,21.833 37.672 C 21.833 37.858,21.721 38.054,21.583 38.106 C 21.446 38.159,21.333 38.344,21.333 38.518 C 21.333 38.691,21.277 38.834,21.208 38.835 C 21.140 38.836,20.940 39.136,20.765 39.502 C 20.590 39.868,20.383 40.167,20.307 40.167 C 20.230 40.167,20.164 40.298,20.161 40.458 C 20.158 40.619,20.046 40.896,19.911 41.074 C 19.777 41.251,19.667 41.570,19.667 41.782 C 19.667 41.994,19.592 42.167,19.500 42.167 C 19.408 42.167,19.333 42.279,19.333 42.417 C 19.333 42.554,19.263 42.667,19.177 42.667 C 19.091 42.667,18.970 43.004,18.908 43.417 C 18.846 43.829,18.729 44.167,18.648 44.167 C 18.566 44.167,18.500 44.279,18.500 44.417 C 18.500 44.554,18.432 44.667,18.349 44.667 C 18.266 44.667,18.146 45.042,18.083 45.500 C 18.020 45.958,17.901 46.333,17.818 46.333 C 17.735 46.333,17.667 46.516,17.667 46.740 C 17.667 46.964,17.592 47.193,17.500 47.250 C 17.408 47.307,17.333 47.569,17.333 47.833 C 17.333 48.098,17.264 48.356,17.180 48.409 C 17.095 48.461,16.974 48.990,16.910 49.585 C 16.847 50.180,16.728 50.667,16.647 50.667 C 16.566 50.667,16.500 51.027,16.500 51.467 C 16.500 51.907,16.406 52.360,16.292 52.475 C 15.989 52.778,15.989 65.357,16.292 65.458 C 16.421 65.501,16.500 65.840,16.500 66.347 C 16.500 66.798,16.566 67.167,16.647 67.167 C 16.728 67.167,16.847 67.653,16.910 68.248 C 16.974 68.843,17.095 69.373,17.180 69.425 C 17.264 69.477,17.333 69.736,17.333 70.000 C 17.333 70.264,17.408 70.527,17.500 70.583 C 17.592 70.640,17.667 70.869,17.667 71.093 C 17.667 71.317,17.735 71.500,17.818 71.500 C 17.901 71.500,18.020 71.875,18.083 72.333 C 18.146 72.792,18.266 73.167,18.349 73.167 C 18.432 73.167,18.500 73.279,18.500 73.417 C 18.500 73.554,18.575 73.667,18.667 73.667 C 18.758 73.667,18.833 73.824,18.833 74.016 C 18.833 74.363,19.300 75.506,19.507 75.667 C 19.566 75.712,19.660 75.987,19.717 76.277 C 19.773 76.568,20.068 77.205,20.373 77.694 C 20.678 78.183,21.037 78.808,21.172 79.083 C 21.306 79.358,21.510 79.682,21.625 79.804 C 21.740 79.925,21.833 80.131,21.833 80.262 C 21.833 80.393,21.908 80.500,22.000 80.500 C 22.092 80.500,22.167 80.612,22.167 80.750 C 22.167 80.887,22.237 81.000,22.322 81.000 C 22.408 81.000,22.529 81.162,22.592 81.361 C 22.655 81.559,22.885 81.900,23.103 82.118 C 23.321 82.337,23.500 82.576,23.500 82.650 C 23.500 82.723,23.717 83.011,23.982 83.289 C 24.248 83.566,24.514 83.949,24.574 84.138 C 24.634 84.328,24.826 84.528,25.000 84.583 C 25.174 84.639,25.363 84.830,25.419 85.009 C 25.476 85.187,25.592 85.333,25.678 85.333 C 25.763 85.333,25.833 85.419,25.833 85.523 C 25.833 85.788,29.260 89.167,29.529 89.167 C 29.651 89.167,29.900 89.393,30.083 89.668 C 30.267 89.943,30.548 90.211,30.708 90.262 C 30.869 90.314,31.000 90.426,31.000 90.511 C 31.000 90.597,31.085 90.667,31.189 90.667 C 31.293 90.667,31.552 90.854,31.765 91.083 C 31.977 91.313,32.233 91.500,32.333 91.500 C 32.434 91.500,32.690 91.688,32.902 91.917 C 33.114 92.146,33.364 92.333,33.457 92.333 C 33.550 92.333,33.719 92.446,33.833 92.583 C 33.947 92.721,34.182 92.833,34.354 92.833 C 34.526 92.833,34.667 92.908,34.667 93.000 C 34.667 93.092,34.779 93.167,34.917 93.167 C 35.054 93.167,35.167 93.233,35.167 93.313 C 35.167 93.394,35.598 93.675,36.125 93.938 C 36.652 94.201,37.108 94.471,37.137 94.536 C 37.167 94.602,37.448 94.704,37.762 94.763 C 38.076 94.822,38.333 94.937,38.333 95.019 C 38.333 95.100,38.446 95.167,38.583 95.167 C 38.721 95.167,38.833 95.238,38.833 95.326 C 38.833 95.413,39.096 95.534,39.417 95.594 C 39.737 95.655,40.000 95.770,40.000 95.852 C 40.000 95.933,40.112 96.000,40.250 96.000 C 40.387 96.000,40.500 96.066,40.500 96.148 C 40.500 96.229,40.837 96.346,41.250 96.408 C 41.662 96.470,42.000 96.591,42.000 96.677 C 42.000 96.763,42.188 96.833,42.417 96.833 C 42.646 96.833,42.833 96.908,42.833 97.000 C 42.833 97.092,43.016 97.167,43.240 97.167 C 43.464 97.167,43.690 97.236,43.743 97.322 C 43.795 97.407,44.250 97.528,44.753 97.591 C 45.255 97.654,45.667 97.771,45.667 97.853 C 45.667 97.934,45.887 98.000,46.157 98.000 C 46.426 98.000,46.688 98.067,46.739 98.149 C 46.790 98.231,47.432 98.352,48.166 98.417 C 48.900 98.482,49.500 98.602,49.500 98.684 C 49.500 98.766,50.025 98.833,50.667 98.833 C 51.308 98.833,51.833 98.904,51.833 98.990 C 51.833 99.212,60.276 99.227,60.414 99.005 C 60.472 98.910,60.965 98.833,61.510 98.833 C 62.054 98.833,62.500 98.768,62.500 98.688 C 62.500 98.608,63.174 98.490,63.998 98.426 C 64.822 98.361,65.539 98.239,65.591 98.154 C 65.643 98.069,65.902 98.000,66.167 98.000 C 66.431 98.000,66.689 97.932,66.740 97.849 C 66.792 97.766,67.209 97.646,67.667 97.583 C 68.125 97.520,68.542 97.401,68.593 97.318 C 68.644 97.235,68.869 97.167,69.093 97.167 C 69.317 97.167,69.500 97.092,69.500 97.000 C 69.500 96.908,69.650 96.833,69.833 96.833 C 70.017 96.833,70.167 96.768,70.167 96.688 C 70.167 96.608,70.470 96.494,70.841 96.435 C 71.468 96.334,72.139 96.055,72.333 95.813 C 72.379 95.755,72.660 95.656,72.958 95.591 C 73.256 95.526,73.500 95.404,73.500 95.320 C 73.500 95.236,73.650 95.167,73.833 95.167 C 74.017 95.167,74.167 95.098,74.167 95.013 C 74.167 94.929,74.392 94.810,74.667 94.750 C 74.942 94.690,75.167 94.571,75.167 94.487 C 75.167 94.402,75.317 94.333,75.500 94.333 C 75.683 94.333,75.833 94.266,75.833 94.185 C 75.833 94.103,76.004 93.993,76.212 93.941 C 76.420 93.889,76.754 93.693,76.955 93.506 C 77.155 93.320,77.435 93.167,77.576 93.167 C 77.718 93.167,77.833 93.090,77.833 92.996 C 77.833 92.902,78.023 92.753,78.254 92.665 C 78.486 92.577,78.719 92.391,78.772 92.253 C 78.825 92.114,79.013 92.000,79.190 92.000 C 79.366 92.000,79.554 91.888,79.606 91.750 C 79.659 91.612,79.817 91.500,79.957 91.500 C 80.097 91.500,80.386 91.313,80.598 91.083 C 80.810 90.854,81.047 90.667,81.124 90.667 C 81.321 90.667,82.500 89.534,82.500 89.345 C 82.500 89.259,82.667 89.136,82.871 89.071 C 83.371 88.913,86.167 86.114,86.167 85.772 C 86.167 85.622,86.241 85.500,86.333 85.500 C 86.516 85.500,87.998 83.987,87.999 83.799 C 88.000 83.735,88.179 83.503,88.397 83.285 C 88.615 83.067,88.845 82.726,88.908 82.528 C 88.971 82.329,89.092 82.167,89.178 82.167 C 89.263 82.167,89.333 82.054,89.333 81.917 C 89.333 81.779,89.403 81.667,89.489 81.667 C 89.574 81.667,89.697 81.498,89.763 81.292 C 89.828 81.085,90.002 80.803,90.149 80.664 C 90.483 80.350,90.749 79.928,91.122 79.125 C 91.281 78.781,91.466 78.500,91.532 78.500 C 91.598 78.500,91.701 78.237,91.761 77.917 C 91.821 77.596,91.937 77.333,92.019 77.333 C 92.100 77.333,92.167 77.221,92.167 77.083 C 92.167 76.946,92.238 76.833,92.326 76.833 C 92.413 76.833,92.534 76.571,92.594 76.250 C 92.655 75.929,92.770 75.667,92.852 75.667 C 92.933 75.667,93.000 75.554,93.000 75.417 C 93.000 75.279,93.070 75.167,93.156 75.167 C 93.243 75.167,93.364 74.829,93.425 74.417 C 93.487 74.004,93.604 73.667,93.686 73.667 C 93.767 73.667,93.833 73.479,93.833 73.250 C 93.833 73.021,93.897 72.833,93.975 72.833 C 94.151 72.833,94.667 71.267,94.667 70.731 C 94.667 70.512,94.742 70.333,94.833 70.333 C 94.925 70.333,95.000 70.150,95.000 69.927 C 95.000 69.703,95.071 69.476,95.157 69.423 C 95.243 69.369,95.365 68.802,95.428 68.163 C 95.492 67.523,95.608 67.000,95.688 67.000 C 95.768 67.000,95.833 66.640,95.833 66.200 C 95.833 65.760,95.927 65.306,96.042 65.192 C 96.201 65.033,96.250 63.541,96.250 58.881 C 96.250 54.146,96.203 52.762,96.042 52.708 C 95.909 52.664,95.833 52.310,95.833 51.736 C 95.833 51.240,95.768 50.833,95.688 50.833 C 95.608 50.833,95.492 50.310,95.428 49.670 C 95.365 49.031,95.243 48.464,95.157 48.411 C 95.071 48.357,95.000 48.131,95.000 47.907 C 95.000 47.683,94.925 47.500,94.833 47.500 C 94.742 47.500,94.667 47.294,94.667 47.042 C 94.668 46.493,94.156 45.000,93.967 45.000 C 93.894 45.000,93.833 44.813,93.833 44.583 C 93.833 44.354,93.767 44.167,93.686 44.167 C 93.604 44.167,93.487 43.829,93.425 43.417 C 93.364 43.004,93.243 42.667,93.156 42.667 C 93.070 42.667,93.000 42.554,93.000 42.417 C 93.000 42.279,92.928 42.167,92.841 42.167 C 92.753 42.167,92.633 41.904,92.572 41.583 C 92.512 41.262,92.396 41.000,92.315 41.000 C 92.233 41.000,92.167 40.887,92.167 40.750 C 92.167 40.612,92.100 40.500,92.019 40.500 C 91.937 40.500,91.821 40.237,91.761 39.917 C 91.701 39.596,91.580 39.333,91.492 39.333 C 91.405 39.333,91.333 39.221,91.333 39.083 C 91.333 38.946,91.258 38.833,91.167 38.833 C 91.075 38.833,91.000 38.681,91.000 38.495 C 91.000 38.309,90.888 38.113,90.750 38.060 C 90.612 38.008,90.500 37.850,90.500 37.710 C 90.500 37.570,90.361 37.334,90.191 37.186 C 90.020 37.038,89.828 36.748,89.763 36.542 C 89.697 36.335,89.574 36.167,89.489 36.167 C 89.403 36.167,89.333 36.054,89.333 35.917 C 89.333 35.779,89.275 35.667,89.205 35.667 C 89.134 35.667,88.937 35.409,88.767 35.093 C 88.597 34.778,88.355 34.480,88.229 34.432 C 88.103 34.383,88.000 34.248,87.999 34.130 C 87.999 34.013,87.661 33.561,87.249 33.126 C 86.837 32.691,86.500 32.290,86.500 32.236 C 86.500 32.025,82.980 28.667,82.759 28.667 C 82.629 28.667,82.475 28.517,82.417 28.333 C 82.358 28.150,82.240 28.000,82.154 28.000 C 82.068 28.000,81.835 27.813,81.636 27.583 C 81.436 27.354,81.185 27.167,81.077 27.167 C 80.968 27.167,80.739 26.979,80.567 26.750 C 80.395 26.521,80.126 26.333,79.969 26.333 C 79.812 26.333,79.623 26.239,79.550 26.124 C 79.363 25.831,78.226 25.000,78.011 25.000 C 77.913 25.000,77.833 24.925,77.833 24.833 C 77.833 24.742,77.683 24.667,77.500 24.667 C 77.317 24.667,77.167 24.593,77.167 24.503 C 77.167 24.413,76.979 24.293,76.750 24.235 C 76.521 24.178,76.333 24.064,76.333 23.982 C 76.333 23.900,76.221 23.833,76.083 23.833 C 75.946 23.833,75.833 23.768,75.833 23.688 C 75.833 23.607,75.607 23.496,75.330 23.441 C 75.053 23.386,74.664 23.189,74.465 23.004 C 74.267 22.818,73.982 22.667,73.834 22.667 C 73.685 22.667,73.418 22.557,73.240 22.422 C 73.062 22.287,72.785 22.175,72.625 22.172 C 72.465 22.169,72.333 22.110,72.332 22.042 C 72.331 21.909,71.538 21.500,71.284 21.500 C 71.137 21.500,70.185 21.111,69.649 20.833 C 69.503 20.757,69.034 20.642,68.608 20.578 C 68.182 20.514,67.833 20.396,67.833 20.314 C 67.833 20.233,67.623 20.167,67.367 20.167 C 67.110 20.167,66.827 20.094,66.738 20.005 C 66.649 19.916,66.034 19.792,65.371 19.731 C 64.709 19.669,64.167 19.555,64.167 19.476 C 64.167 19.398,63.882 19.333,63.533 19.333 C 63.185 19.333,62.812 19.245,62.704 19.138 C 62.507 18.940,53.394 18.794,50.708 18.946 " stroke="none" fill="#1c9cdc" fill-rule="evenodd"></path><path id="path1" d="M157.500 18.947 C 156.904 18.986,156.345 19.089,156.258 19.175 C 156.171 19.262,155.740 19.333,155.300 19.333 C 154.860 19.333,154.500 19.402,154.500 19.487 C 154.500 19.571,154.012 19.692,153.417 19.756 C 152.821 19.820,152.333 19.938,152.333 20.019 C 152.333 20.100,152.071 20.167,151.750 20.167 C 151.429 20.167,151.167 20.235,151.167 20.318 C 151.167 20.401,150.792 20.520,150.333 20.583 C 149.875 20.646,149.500 20.766,149.500 20.849 C 149.500 20.932,149.313 21.000,149.083 21.000 C 148.854 21.000,148.667 21.066,148.667 21.146 C 148.667 21.226,148.423 21.340,148.126 21.400 C 147.475 21.530,146.667 21.874,146.667 22.021 C 146.667 22.080,146.217 22.267,145.668 22.439 C 145.119 22.610,144.669 22.806,144.668 22.875 C 144.667 22.944,144.554 23.000,144.417 23.000 C 144.279 23.000,144.167 23.067,144.167 23.149 C 144.167 23.230,143.979 23.344,143.750 23.402 C 143.521 23.459,143.333 23.580,143.333 23.670 C 143.333 23.760,143.183 23.833,143.000 23.833 C 142.817 23.833,142.667 23.902,142.667 23.987 C 142.667 24.071,142.438 24.190,142.159 24.252 C 141.879 24.313,141.561 24.507,141.452 24.682 C 141.343 24.857,141.119 25.000,140.955 25.000 C 140.791 25.000,140.613 25.113,140.560 25.250 C 140.508 25.387,140.340 25.500,140.189 25.500 C 140.037 25.500,139.820 25.650,139.705 25.833 C 139.591 26.017,139.391 26.167,139.261 26.167 C 139.131 26.167,138.877 26.354,138.696 26.583 C 138.516 26.813,138.274 27.000,138.159 27.000 C 138.043 27.000,137.663 27.300,137.314 27.667 C 136.965 28.033,136.604 28.333,136.510 28.333 C 136.295 28.333,132.333 32.298,132.333 32.513 C 132.333 32.601,131.996 32.996,131.583 33.391 C 131.171 33.786,130.833 34.163,130.833 34.228 C 130.833 34.342,130.674 34.558,130.208 35.077 C 130.094 35.205,130.000 35.390,130.000 35.488 C 130.000 35.586,129.930 35.667,129.845 35.667 C 129.759 35.667,129.636 35.835,129.571 36.042 C 129.506 36.248,129.324 36.529,129.167 36.667 C 129.010 36.804,128.828 37.085,128.763 37.292 C 128.697 37.498,128.574 37.667,128.489 37.667 C 128.403 37.667,128.333 37.779,128.333 37.917 C 128.333 38.054,128.258 38.167,128.167 38.167 C 128.075 38.167,128.000 38.317,128.000 38.500 C 128.000 38.683,127.925 38.833,127.833 38.833 C 127.742 38.833,127.667 38.940,127.667 39.071 C 127.667 39.202,127.570 39.409,127.452 39.530 C 127.199 39.790,126.667 40.887,126.667 41.150 C 126.667 41.251,126.610 41.333,126.541 41.333 C 126.377 41.333,126.037 42.107,125.900 42.793 C 125.840 43.090,125.726 43.333,125.646 43.333 C 125.566 43.333,125.500 43.446,125.500 43.583 C 125.500 43.721,125.434 43.833,125.352 43.833 C 125.271 43.833,125.162 44.040,125.110 44.292 C 124.886 45.373,124.581 46.333,124.462 46.333 C 124.391 46.333,124.333 46.516,124.333 46.740 C 124.333 46.964,124.264 47.190,124.180 47.242 C 124.095 47.294,123.974 47.824,123.910 48.418 C 123.847 49.013,123.728 49.500,123.647 49.500 C 123.566 49.500,123.500 49.762,123.500 50.083 C 123.500 50.404,123.431 50.667,123.347 50.667 C 123.263 50.667,123.141 51.492,123.076 52.500 C 123.011 53.508,122.892 54.333,122.812 54.333 C 122.732 54.333,122.667 56.396,122.667 58.917 C 122.667 61.438,122.732 63.500,122.812 63.500 C 122.892 63.500,123.011 64.325,123.076 65.333 C 123.141 66.342,123.263 67.167,123.347 67.167 C 123.431 67.167,123.500 67.429,123.500 67.750 C 123.500 68.071,123.566 68.333,123.647 68.333 C 123.728 68.333,123.847 68.820,123.910 69.415 C 123.974 70.010,124.095 70.539,124.180 70.591 C 124.264 70.644,124.333 70.869,124.333 71.093 C 124.333 71.317,124.408 71.500,124.500 71.500 C 124.592 71.500,124.666 71.631,124.666 71.792 C 124.665 72.212,125.208 73.667,125.366 73.667 C 125.440 73.667,125.500 73.854,125.500 74.083 C 125.500 74.313,125.567 74.500,125.648 74.500 C 125.730 74.500,125.845 74.763,125.906 75.083 C 125.966 75.404,126.087 75.667,126.174 75.667 C 126.262 75.667,126.333 75.854,126.333 76.083 C 126.333 76.313,126.408 76.500,126.500 76.500 C 126.592 76.500,126.667 76.582,126.667 76.683 C 126.667 76.904,127.188 78.049,127.342 78.167 C 127.402 78.212,127.590 78.550,127.761 78.917 C 127.931 79.283,128.163 79.678,128.276 79.794 C 128.389 79.911,128.650 80.304,128.855 80.669 C 129.060 81.035,129.289 81.333,129.364 81.333 C 129.439 81.333,129.500 81.442,129.500 81.576 C 129.500 81.709,129.688 82.006,129.917 82.235 C 130.146 82.464,130.333 82.727,130.333 82.818 C 130.333 82.910,130.521 83.172,130.750 83.402 C 130.979 83.631,131.167 83.887,131.167 83.971 C 131.167 84.055,131.429 84.348,131.750 84.623 C 132.071 84.897,132.333 85.208,132.333 85.314 C 132.333 85.547,136.258 89.500,136.489 89.500 C 136.578 89.500,136.906 89.763,137.217 90.083 C 137.529 90.404,137.836 90.667,137.899 90.667 C 137.963 90.667,138.217 90.854,138.464 91.083 C 138.711 91.313,138.980 91.500,139.063 91.500 C 139.145 91.500,139.386 91.688,139.598 91.917 C 139.810 92.146,140.092 92.333,140.224 92.333 C 140.356 92.333,140.508 92.446,140.560 92.583 C 140.613 92.721,140.809 92.833,140.995 92.833 C 141.181 92.833,141.333 92.908,141.333 93.000 C 141.333 93.092,141.446 93.167,141.583 93.167 C 141.721 93.167,141.834 93.223,141.834 93.292 C 141.836 93.459,142.799 94.000,143.097 94.000 C 143.227 94.000,143.333 94.075,143.333 94.167 C 143.333 94.258,143.446 94.333,143.583 94.333 C 143.721 94.333,143.833 94.407,143.833 94.497 C 143.833 94.587,144.021 94.707,144.250 94.765 C 144.479 94.822,144.667 94.936,144.667 95.018 C 144.667 95.100,144.854 95.167,145.083 95.167 C 145.313 95.167,145.500 95.233,145.500 95.315 C 145.500 95.396,145.762 95.512,146.083 95.572 C 146.404 95.633,146.667 95.735,146.667 95.800 C 146.667 95.958,147.453 96.299,148.126 96.434 C 148.423 96.493,148.667 96.607,148.667 96.688 C 148.667 96.768,148.854 96.833,149.083 96.833 C 149.313 96.833,149.500 96.908,149.500 97.000 C 149.500 97.092,149.673 97.167,149.883 97.167 C 150.094 97.167,150.344 97.244,150.438 97.338 C 150.532 97.432,150.997 97.555,151.471 97.611 C 151.945 97.667,152.333 97.778,152.333 97.857 C 152.333 97.935,152.596 98.000,152.917 98.000 C 153.237 98.000,153.500 98.068,153.500 98.152 C 153.500 98.235,154.137 98.357,154.917 98.421 C 155.696 98.486,156.333 98.606,156.333 98.686 C 156.333 98.767,156.816 98.833,157.407 98.833 C 157.997 98.833,158.527 98.908,158.583 99.000 C 158.648 99.104,160.280 99.167,162.927 99.167 C 165.642 99.167,167.167 99.107,167.167 99.000 C 167.167 98.907,167.611 98.833,168.167 98.833 C 168.717 98.833,169.167 98.769,169.167 98.691 C 169.167 98.613,169.821 98.499,170.620 98.437 C 171.420 98.376,172.148 98.252,172.237 98.163 C 172.327 98.073,172.647 98.000,172.950 98.000 C 173.252 98.000,173.500 97.934,173.500 97.852 C 173.500 97.771,173.819 97.656,174.208 97.598 C 174.598 97.539,175.217 97.378,175.583 97.239 C 175.950 97.101,176.381 96.944,176.542 96.891 C 176.702 96.838,176.833 96.735,176.833 96.663 C 176.833 96.590,177.208 96.480,177.667 96.417 C 178.125 96.354,178.500 96.234,178.500 96.151 C 178.500 96.068,178.650 96.000,178.833 96.000 C 179.017 96.000,179.167 95.931,179.167 95.847 C 179.167 95.762,179.392 95.644,179.667 95.583 C 179.942 95.523,180.167 95.404,180.167 95.320 C 180.167 95.236,180.317 95.167,180.500 95.167 C 180.683 95.167,180.833 95.092,180.833 95.000 C 180.833 94.908,180.916 94.833,181.016 94.833 C 181.217 94.833,182.366 94.324,182.500 94.175 C 182.546 94.125,182.865 93.953,183.208 93.794 C 183.552 93.635,183.833 93.429,183.833 93.336 C 183.833 93.243,183.983 93.167,184.167 93.167 C 184.350 93.167,184.500 93.097,184.500 93.011 C 184.500 92.926,184.669 92.803,184.875 92.737 C 185.081 92.672,185.362 92.490,185.500 92.333 C 185.637 92.176,185.919 91.994,186.125 91.929 C 186.331 91.864,186.500 91.741,186.500 91.655 C 186.500 91.570,186.585 91.500,186.689 91.500 C 186.792 91.500,187.125 91.237,187.427 90.917 C 187.730 90.596,188.058 90.333,188.156 90.333 C 188.254 90.333,188.625 90.033,188.981 89.667 C 189.337 89.300,189.698 89.000,189.784 89.000 C 189.870 89.000,190.098 88.831,190.292 88.625 C 190.485 88.419,190.743 88.158,190.863 88.046 C 191.240 87.698,191.503 87.431,191.883 87.015 C 192.085 86.794,192.419 86.461,192.625 86.276 C 192.831 86.091,193.000 85.867,193.000 85.777 C 193.000 85.688,193.300 85.330,193.667 84.981 C 194.033 84.632,194.333 84.272,194.333 84.181 C 194.333 84.090,194.596 83.761,194.917 83.450 C 195.237 83.138,195.500 82.797,195.500 82.691 C 195.500 82.586,195.570 82.500,195.655 82.500 C 195.741 82.500,195.864 82.331,195.929 82.125 C 195.994 81.919,196.176 81.637,196.333 81.500 C 196.490 81.362,196.672 81.081,196.737 80.875 C 196.803 80.669,196.926 80.500,197.011 80.500 C 197.097 80.500,197.167 80.387,197.167 80.250 C 197.167 80.112,197.242 80.000,197.333 80.000 C 197.425 80.000,197.500 79.859,197.500 79.687 C 197.500 79.515,197.612 79.281,197.750 79.167 C 197.887 79.053,198.000 78.856,198.000 78.730 C 198.000 78.603,198.057 78.500,198.127 78.500 C 198.261 78.500,198.833 77.283,198.833 76.999 C 198.833 76.908,198.891 76.833,198.961 76.833 C 199.095 76.833,199.667 75.617,199.667 75.332 C 199.667 75.241,199.742 75.167,199.833 75.167 C 199.925 75.167,200.000 74.979,200.000 74.750 C 200.000 74.521,200.070 74.333,200.156 74.333 C 200.243 74.333,200.364 73.996,200.425 73.583 C 200.487 73.171,200.604 72.833,200.686 72.833 C 200.767 72.833,200.833 72.646,200.833 72.417 C 200.833 72.188,200.901 72.000,200.984 72.000 C 201.067 72.000,201.187 71.625,201.250 71.167 C 201.313 70.708,201.433 70.333,201.516 70.333 C 201.599 70.333,201.667 70.146,201.667 69.917 C 201.667 69.688,201.742 69.500,201.833 69.500 C 201.925 69.500,202.000 69.215,202.000 68.867 C 202.000 68.518,202.075 68.159,202.166 68.067 C 202.257 67.976,202.381 67.324,202.440 66.617 C 202.500 65.911,202.613 65.333,202.691 65.333 C 202.769 65.333,202.833 64.808,202.833 64.167 C 202.833 63.500,202.905 63.000,203.000 63.000 C 203.106 63.000,203.167 61.559,203.167 59.010 C 203.167 56.530,203.104 54.981,203.000 54.917 C 202.908 54.860,202.833 54.331,202.833 53.740 C 202.833 53.150,202.769 52.667,202.691 52.667 C 202.612 52.667,202.497 52.057,202.435 51.312 C 202.373 50.567,202.249 49.821,202.161 49.656 C 202.072 49.491,202.000 49.125,202.000 48.844 C 202.000 48.563,201.925 48.333,201.833 48.333 C 201.742 48.333,201.667 48.146,201.667 47.917 C 201.667 47.688,201.600 47.500,201.519 47.500 C 201.438 47.500,201.320 47.144,201.258 46.708 C 201.139 45.873,200.825 45.000,200.645 45.000 C 200.586 45.000,200.487 44.663,200.425 44.250 C 200.364 43.837,200.243 43.500,200.156 43.500 C 200.070 43.500,200.000 43.313,200.000 43.083 C 200.000 42.854,199.931 42.667,199.847 42.667 C 199.762 42.667,199.644 42.442,199.583 42.167 C 199.523 41.892,199.404 41.667,199.320 41.667 C 199.236 41.667,199.167 41.517,199.167 41.333 C 199.167 41.150,199.092 41.000,199.000 41.000 C 198.908 41.000,198.833 40.926,198.833 40.834 C 198.833 40.550,198.261 39.333,198.127 39.333 C 198.057 39.333,198.000 39.221,198.000 39.083 C 198.000 38.946,197.933 38.833,197.851 38.833 C 197.770 38.833,197.656 38.646,197.598 38.417 C 197.541 38.188,197.420 38.000,197.330 38.000 C 197.240 38.000,197.167 37.850,197.167 37.667 C 197.167 37.483,197.097 37.333,197.011 37.333 C 196.926 37.333,196.803 37.165,196.737 36.958 C 196.672 36.752,196.490 36.471,196.333 36.333 C 196.176 36.196,195.994 35.915,195.929 35.708 C 195.864 35.502,195.741 35.333,195.655 35.333 C 195.570 35.333,195.500 35.248,195.500 35.144 C 195.500 35.040,195.313 34.781,195.083 34.569 C 194.854 34.356,194.667 34.072,194.667 33.936 C 194.667 33.800,194.517 33.642,194.333 33.583 C 194.150 33.525,194.000 33.411,194.000 33.330 C 194.000 33.248,193.813 32.994,193.583 32.765 C 193.354 32.536,193.167 32.296,193.167 32.232 C 193.167 32.090,189.742 28.667,189.600 28.667 C 189.544 28.667,189.143 28.330,188.708 27.918 C 188.273 27.506,187.827 27.168,187.717 27.168 C 187.607 27.167,187.457 27.072,187.383 26.957 C 187.226 26.710,186.074 25.833,185.906 25.833 C 185.842 25.833,185.668 25.694,185.520 25.524 C 185.371 25.354,185.081 25.161,184.875 25.096 C 184.669 25.031,184.500 24.908,184.500 24.822 C 184.500 24.737,184.358 24.667,184.184 24.667 C 184.011 24.667,183.826 24.554,183.773 24.417 C 183.720 24.279,183.525 24.167,183.339 24.167 C 183.152 24.167,183.000 24.092,183.000 24.000 C 183.000 23.908,182.887 23.833,182.750 23.833 C 182.612 23.833,182.500 23.762,182.500 23.674 C 182.500 23.587,182.237 23.466,181.917 23.406 C 181.596 23.345,181.333 23.230,181.333 23.148 C 181.333 23.067,181.221 23.000,181.083 23.000 C 180.946 23.000,180.833 22.925,180.833 22.833 C 180.833 22.742,180.714 22.667,180.567 22.667 C 180.273 22.667,179.282 22.155,179.194 21.958 C 179.164 21.890,179.000 21.833,178.829 21.833 C 178.659 21.833,178.479 21.767,178.428 21.686 C 178.378 21.604,178.074 21.488,177.752 21.428 C 177.430 21.368,177.167 21.247,177.167 21.159 C 177.167 21.072,176.984 21.000,176.760 21.000 C 176.536 21.000,176.308 20.927,176.253 20.838 C 176.198 20.749,175.781 20.627,175.326 20.567 C 174.872 20.506,174.500 20.392,174.500 20.312 C 174.500 20.232,174.275 20.167,174.000 20.167 C 173.725 20.167,173.500 20.098,173.500 20.014 C 173.500 19.930,172.938 19.809,172.250 19.745 C 171.563 19.680,171.000 19.561,171.000 19.480 C 171.000 19.400,170.669 19.333,170.264 19.333 C 169.848 19.333,169.499 19.248,169.462 19.137 C 169.396 18.939,159.934 18.788,157.500 18.947 " stroke="none" fill="#e4147c" fill-rule="evenodd"></path><path id="path2" d="M263.667 18.947 C 263.071 18.986,262.512 19.089,262.425 19.175 C 262.338 19.262,261.982 19.333,261.633 19.333 C 261.285 19.333,261.000 19.400,261.000 19.480 C 261.000 19.561,260.438 19.680,259.750 19.745 C 259.063 19.809,258.500 19.930,258.500 20.014 C 258.500 20.098,258.313 20.167,258.083 20.167 C 257.854 20.167,257.667 20.232,257.667 20.312 C 257.667 20.392,257.217 20.508,256.667 20.570 C 256.117 20.632,255.667 20.754,255.667 20.842 C 255.667 20.929,255.517 21.000,255.333 21.000 C 255.150 21.000,255.000 21.075,255.000 21.167 C 255.000 21.258,254.825 21.333,254.611 21.333 C 254.397 21.333,254.167 21.389,254.099 21.456 C 254.032 21.524,253.888 21.588,253.780 21.599 C 253.369 21.640,252.833 21.878,252.833 22.019 C 252.833 22.100,252.683 22.167,252.500 22.167 C 252.317 22.167,252.167 22.236,252.167 22.320 C 252.167 22.404,251.942 22.523,251.667 22.583 C 251.392 22.644,251.167 22.762,251.167 22.847 C 251.167 22.931,251.017 23.000,250.833 23.000 C 250.650 23.000,250.500 23.075,250.500 23.167 C 250.500 23.258,250.418 23.333,250.317 23.333 C 250.054 23.333,248.956 23.865,248.696 24.119 C 248.575 24.237,248.369 24.333,248.238 24.333 C 248.107 24.333,248.000 24.408,248.000 24.500 C 248.000 24.592,247.922 24.667,247.826 24.667 C 247.731 24.667,247.495 24.814,247.301 24.994 C 247.108 25.174,246.900 25.291,246.838 25.253 C 246.777 25.215,246.622 25.331,246.494 25.509 C 246.365 25.687,246.198 25.833,246.123 25.833 C 245.993 25.833,245.788 25.981,245.256 26.458 C 245.128 26.573,244.976 26.667,244.917 26.667 C 244.858 26.667,244.705 26.760,244.577 26.875 C 244.058 27.341,243.842 27.500,243.728 27.500 C 243.663 27.500,243.292 27.832,242.903 28.237 C 242.515 28.643,242.152 28.930,242.098 28.876 C 242.044 28.822,242.000 28.865,242.000 28.972 C 242.000 29.079,241.920 29.167,241.821 29.167 C 241.575 29.167,241.159 29.604,241.286 29.730 C 241.342 29.787,241.303 29.833,241.198 29.833 C 240.972 29.833,239.122 31.678,239.235 31.791 C 239.278 31.833,238.905 32.266,238.406 32.753 C 237.908 33.240,237.500 33.720,237.500 33.820 C 237.500 33.920,237.313 34.165,237.083 34.364 C 236.854 34.564,236.667 34.805,236.667 34.900 C 236.667 34.995,236.498 35.226,236.292 35.414 C 235.892 35.777,235.592 36.206,235.350 36.757 C 235.268 36.944,235.086 37.193,234.945 37.310 C 234.804 37.427,234.640 37.743,234.581 38.012 C 234.522 38.280,234.410 38.500,234.332 38.500 C 234.254 38.500,234.058 38.800,233.897 39.167 C 233.735 39.533,233.542 39.833,233.468 39.833 C 233.394 39.833,233.333 39.983,233.333 40.167 C 233.333 40.350,233.275 40.500,233.203 40.500 C 233.132 40.500,232.928 40.875,232.750 41.333 C 232.572 41.792,232.368 42.167,232.297 42.167 C 232.225 42.167,232.167 42.354,232.167 42.583 C 232.167 42.813,232.095 43.000,232.008 43.000 C 231.920 43.000,231.799 43.262,231.739 43.583 C 231.679 43.904,231.563 44.167,231.481 44.167 C 231.400 44.167,231.333 44.354,231.333 44.583 C 231.333 44.813,231.265 45.000,231.182 45.000 C 231.099 45.000,230.980 45.375,230.917 45.833 C 230.854 46.292,230.734 46.667,230.651 46.667 C 230.568 46.667,230.500 46.854,230.500 47.083 C 230.500 47.313,230.433 47.500,230.350 47.500 C 230.268 47.500,230.148 48.025,230.083 48.667 C 230.019 49.308,229.899 49.833,229.816 49.833 C 229.734 49.833,229.667 50.133,229.667 50.500 C 229.667 50.867,229.592 51.167,229.500 51.167 C 229.408 51.167,229.333 51.529,229.333 51.972 C 229.333 52.415,229.277 52.835,229.208 52.904 C 229.036 53.077,228.986 54.437,228.986 58.917 C 228.986 63.397,229.036 64.756,229.208 64.929 C 229.277 64.999,229.333 65.418,229.333 65.861 C 229.333 66.304,229.408 66.667,229.500 66.667 C 229.592 66.667,229.667 66.962,229.667 67.323 C 229.667 67.685,229.736 68.023,229.820 68.075 C 229.905 68.127,230.026 68.657,230.090 69.252 C 230.153 69.847,230.272 70.333,230.353 70.333 C 230.434 70.333,230.500 70.521,230.500 70.750 C 230.500 70.979,230.566 71.167,230.648 71.167 C 230.729 71.167,230.846 71.502,230.907 71.913 C 230.969 72.323,231.090 72.703,231.176 72.756 C 231.263 72.809,231.333 72.999,231.333 73.177 C 231.333 73.354,231.399 73.500,231.479 73.500 C 231.559 73.500,231.672 73.800,231.731 74.167 C 231.789 74.533,231.911 74.833,232.002 74.833 C 232.093 74.833,232.167 75.021,232.167 75.250 C 232.167 75.479,232.242 75.667,232.333 75.667 C 232.425 75.667,232.500 75.773,232.500 75.903 C 232.500 76.181,233.027 77.225,233.208 77.306 C 233.277 77.336,233.333 77.505,233.333 77.681 C 233.333 77.856,233.400 78.000,233.482 78.000 C 233.564 78.000,233.678 78.188,233.735 78.417 C 233.793 78.646,233.913 78.833,234.003 78.833 C 234.093 78.833,234.167 78.946,234.167 79.083 C 234.167 79.221,234.234 79.333,234.315 79.333 C 234.397 79.333,234.511 79.521,234.568 79.750 C 234.626 79.979,234.747 80.167,234.837 80.167 C 234.926 80.167,235.000 80.317,235.000 80.500 C 235.000 80.683,235.066 80.833,235.147 80.833 C 235.228 80.833,235.339 80.965,235.392 81.125 C 235.524 81.517,235.838 81.981,236.292 82.456 C 236.498 82.672,236.667 82.923,236.667 83.013 C 236.667 83.104,236.873 83.394,237.125 83.659 C 237.377 83.923,237.733 84.340,237.917 84.585 C 238.278 85.069,238.379 85.171,238.984 85.670 C 239.204 85.851,239.335 86.000,239.274 86.000 C 239.214 86.000,239.371 86.234,239.624 86.520 C 240.675 87.707,241.347 88.333,241.572 88.333 C 241.703 88.333,241.858 88.483,241.917 88.667 C 241.975 88.850,242.089 89.000,242.171 89.000 C 242.253 89.000,242.597 89.300,242.937 89.667 C 243.276 90.033,243.620 90.333,243.701 90.333 C 243.782 90.333,244.036 90.521,244.265 90.750 C 244.494 90.979,244.773 91.167,244.885 91.167 C 244.996 91.167,245.228 91.354,245.400 91.583 C 245.573 91.813,245.825 92.000,245.962 92.000 C 246.099 92.000,246.332 92.139,246.480 92.309 C 246.629 92.480,246.919 92.672,247.125 92.737 C 247.331 92.803,247.500 92.926,247.500 93.011 C 247.500 93.097,247.612 93.167,247.750 93.167 C 247.887 93.167,248.000 93.242,248.000 93.333 C 248.000 93.425,248.103 93.500,248.230 93.500 C 248.356 93.500,248.553 93.612,248.667 93.750 C 248.781 93.887,249.015 94.000,249.187 94.000 C 249.359 94.000,249.500 94.075,249.500 94.167 C 249.500 94.258,249.612 94.333,249.750 94.333 C 249.887 94.333,250.000 94.405,250.000 94.492 C 250.000 94.580,250.262 94.701,250.583 94.761 C 250.904 94.821,251.167 94.937,251.167 95.019 C 251.167 95.100,251.279 95.167,251.417 95.167 C 251.554 95.167,251.667 95.233,251.667 95.315 C 251.667 95.396,251.929 95.512,252.250 95.572 C 252.571 95.633,252.833 95.753,252.833 95.841 C 252.833 95.928,253.021 96.000,253.250 96.000 C 253.479 96.000,253.667 96.074,253.667 96.165 C 253.667 96.255,253.967 96.377,254.333 96.436 C 254.700 96.495,255.000 96.608,255.000 96.688 C 255.000 96.768,255.188 96.833,255.417 96.833 C 255.646 96.833,255.833 96.908,255.833 97.000 C 255.833 97.092,256.016 97.167,256.240 97.167 C 256.464 97.167,256.689 97.235,256.740 97.318 C 256.792 97.401,257.209 97.520,257.667 97.583 C 258.125 97.646,258.500 97.766,258.500 97.849 C 258.500 97.932,258.692 98.000,258.928 98.000 C 259.163 98.000,259.491 98.072,259.656 98.161 C 259.821 98.249,260.567 98.373,261.312 98.435 C 262.057 98.497,262.667 98.612,262.667 98.691 C 262.667 98.769,263.192 98.833,263.833 98.833 C 264.500 98.833,265.000 98.905,265.000 99.000 C 265.000 99.107,266.500 99.167,269.167 99.167 C 271.833 99.167,273.333 99.107,273.333 99.000 C 273.333 98.905,273.833 98.833,274.500 98.833 C 275.142 98.833,275.667 98.766,275.667 98.684 C 275.667 98.602,276.267 98.482,277.001 98.417 C 277.735 98.352,278.377 98.231,278.427 98.149 C 278.478 98.067,278.778 98.000,279.093 98.000 C 279.409 98.000,279.667 97.925,279.667 97.833 C 279.667 97.742,279.892 97.667,280.167 97.667 C 280.442 97.667,280.667 97.602,280.667 97.523 C 280.667 97.444,280.854 97.415,281.083 97.459 C 281.327 97.506,281.500 97.461,281.500 97.353 C 281.500 97.250,281.683 97.167,281.907 97.167 C 282.131 97.167,282.360 97.092,282.417 97.000 C 282.473 96.908,282.703 96.833,282.927 96.833 C 283.150 96.833,283.333 96.759,283.333 96.669 C 283.333 96.578,283.633 96.456,284.000 96.397 C 284.367 96.339,284.667 96.225,284.667 96.145 C 284.667 96.065,284.817 96.000,285.000 96.000 C 285.183 96.000,285.333 95.925,285.333 95.833 C 285.333 95.742,285.445 95.667,285.582 95.667 C 285.930 95.667,287.167 95.115,287.167 94.961 C 287.167 94.891,287.273 94.833,287.403 94.833 C 287.701 94.833,288.664 94.293,288.666 94.125 C 288.666 94.056,288.749 94.000,288.850 94.000 C 289.158 94.000,290.235 93.450,290.500 93.157 C 290.637 93.005,290.919 92.828,291.125 92.763 C 291.331 92.697,291.500 92.574,291.500 92.489 C 291.500 92.403,291.612 92.333,291.750 92.333 C 291.887 92.333,292.000 92.263,292.000 92.178 C 292.000 92.092,292.162 91.971,292.361 91.908 C 292.559 91.845,292.900 91.615,293.118 91.397 C 293.337 91.179,293.575 91.000,293.649 91.000 C 293.722 91.000,294.052 90.737,294.383 90.417 C 294.713 90.096,295.029 89.833,295.084 89.833 C 295.140 89.833,295.556 89.477,296.009 89.042 C 296.462 88.606,296.926 88.160,297.041 88.050 C 297.156 87.939,297.340 87.752,297.450 87.633 C 297.561 87.514,297.748 87.327,297.867 87.216 C 297.986 87.106,298.175 86.919,298.287 86.800 C 298.399 86.681,298.576 86.498,298.680 86.393 C 299.427 85.642,300.000 84.994,300.000 84.899 C 300.000 84.837,300.225 84.571,300.500 84.308 C 300.775 84.045,301.000 83.753,301.000 83.658 C 301.000 83.563,301.188 83.297,301.417 83.068 C 301.646 82.839,301.833 82.559,301.833 82.446 C 301.833 82.333,301.983 82.132,302.167 82.000 C 302.350 81.868,302.500 81.664,302.500 81.547 C 302.500 81.429,302.574 81.333,302.663 81.333 C 302.753 81.333,302.874 81.146,302.932 80.917 C 302.989 80.688,303.091 80.500,303.158 80.500 C 303.226 80.500,303.424 80.221,303.599 79.880 C 303.774 79.538,304.044 79.116,304.200 78.940 C 304.356 78.765,304.531 78.407,304.588 78.144 C 304.646 77.882,304.762 77.667,304.847 77.667 C 304.931 77.667,305.000 77.554,305.000 77.417 C 305.000 77.279,305.067 77.167,305.148 77.167 C 305.230 77.167,305.345 76.904,305.406 76.583 C 305.466 76.262,305.587 76.000,305.674 76.000 C 305.762 76.000,305.833 75.850,305.833 75.667 C 305.833 75.483,305.908 75.333,306.000 75.333 C 306.092 75.333,306.167 75.146,306.167 74.917 C 306.167 74.688,306.238 74.500,306.326 74.500 C 306.413 74.500,306.537 74.219,306.600 73.875 C 306.663 73.531,306.760 73.212,306.816 73.167 C 307.081 72.947,307.328 72.284,307.430 71.515 C 307.492 71.048,307.608 70.667,307.688 70.667 C 307.768 70.667,307.833 70.484,307.833 70.260 C 307.833 70.036,307.902 69.810,307.987 69.758 C 308.071 69.706,308.193 69.176,308.256 68.582 C 308.320 67.987,308.438 67.500,308.519 67.500 C 308.600 67.500,308.667 67.131,308.667 66.681 C 308.667 66.230,308.744 65.835,308.837 65.804 C 308.941 65.770,309.050 64.541,309.114 62.707 C 309.172 61.035,309.282 59.667,309.360 59.667 C 309.437 59.667,309.500 59.329,309.500 58.917 C 309.500 58.504,309.436 58.167,309.358 58.167 C 309.280 58.167,309.174 56.800,309.123 55.130 C 309.062 53.170,308.965 52.072,308.848 52.033 C 308.748 51.999,308.667 51.603,308.667 51.153 C 308.667 50.702,308.600 50.333,308.519 50.333 C 308.438 50.333,308.320 49.847,308.256 49.252 C 308.193 48.657,308.071 48.127,307.987 48.075 C 307.902 48.023,307.833 47.797,307.833 47.573 C 307.833 47.350,307.767 47.167,307.686 47.167 C 307.605 47.167,307.487 46.754,307.424 46.250 C 307.361 45.746,307.240 45.333,307.155 45.333 C 307.070 45.333,307.000 45.183,307.000 45.000 C 307.000 44.817,306.935 44.667,306.855 44.667 C 306.775 44.667,306.661 44.367,306.603 44.000 C 306.544 43.633,306.422 43.333,306.331 43.333 C 306.241 43.333,306.167 43.146,306.167 42.917 C 306.167 42.688,306.092 42.500,306.000 42.500 C 305.908 42.500,305.833 42.350,305.833 42.167 C 305.833 41.983,305.758 41.833,305.667 41.833 C 305.575 41.833,305.500 41.759,305.500 41.668 C 305.500 41.399,304.931 40.167,304.807 40.167 C 304.745 40.167,304.644 39.942,304.583 39.667 C 304.523 39.392,304.340 39.073,304.176 38.959 C 304.012 38.844,303.828 38.521,303.766 38.241 C 303.705 37.961,303.507 37.625,303.327 37.496 C 303.147 37.366,303.000 37.164,303.000 37.047 C 303.000 36.929,302.921 36.833,302.823 36.833 C 302.726 36.833,302.693 36.758,302.750 36.667 C 302.807 36.575,302.774 36.500,302.677 36.500 C 302.579 36.500,302.500 36.404,302.500 36.287 C 302.500 36.170,302.350 35.965,302.167 35.833 C 301.983 35.701,301.833 35.501,301.833 35.387 C 301.833 35.274,301.655 35.003,301.437 34.785 C 301.218 34.567,300.990 34.230,300.928 34.036 C 300.867 33.842,300.674 33.639,300.500 33.583 C 300.326 33.528,300.135 33.331,300.076 33.145 C 299.943 32.724,296.794 29.500,296.517 29.500 C 296.405 29.500,296.352 29.438,296.399 29.361 C 296.507 29.187,295.301 28.065,294.852 27.923 C 294.668 27.864,294.472 27.674,294.417 27.500 C 294.361 27.326,294.151 27.132,293.950 27.068 C 293.748 27.004,293.471 26.826,293.333 26.673 C 293.196 26.519,292.840 26.251,292.542 26.077 C 292.244 25.904,292.000 25.703,292.000 25.631 C 292.000 25.559,291.887 25.500,291.750 25.500 C 291.612 25.500,291.500 25.421,291.500 25.323 C 291.500 25.226,291.425 25.193,291.333 25.250 C 291.242 25.307,291.167 25.274,291.167 25.177 C 291.167 25.079,291.089 25.000,290.993 25.000 C 290.898 25.000,290.655 24.847,290.455 24.660 C 290.254 24.473,289.901 24.274,289.670 24.217 C 289.439 24.160,289.133 23.980,288.990 23.818 C 288.847 23.655,288.528 23.472,288.282 23.410 C 288.035 23.348,287.833 23.230,287.833 23.149 C 287.833 23.067,287.683 23.000,287.500 23.000 C 287.317 23.000,287.167 22.928,287.167 22.841 C 287.167 22.753,286.904 22.633,286.583 22.572 C 286.262 22.512,286.000 22.396,286.000 22.315 C 286.000 22.233,285.850 22.167,285.667 22.167 C 285.483 22.167,285.333 22.092,285.333 22.000 C 285.333 21.908,285.183 21.833,285.000 21.833 C 284.817 21.833,284.667 21.750,284.667 21.649 C 284.667 21.547,284.554 21.508,284.417 21.560 C 284.279 21.613,284.167 21.584,284.167 21.495 C 284.167 21.406,284.016 21.333,283.831 21.333 C 283.510 21.333,283.363 21.280,282.566 20.873 C 282.373 20.775,281.867 20.642,281.441 20.578 C 281.015 20.514,280.667 20.396,280.667 20.314 C 280.667 20.233,280.446 20.167,280.177 20.167 C 279.907 20.167,279.644 20.098,279.591 20.013 C 279.539 19.929,279.010 19.807,278.415 19.744 C 277.820 19.680,277.333 19.562,277.333 19.481 C 277.333 19.400,276.965 19.333,276.514 19.333 C 276.026 19.333,275.668 19.253,275.628 19.134 C 275.561 18.932,266.161 18.786,263.667 18.947 " stroke="none" fill="#f4ec24" fill-rule="evenodd"></path><path id="path3" d="M229.042 54.417 C 229.044 54.783,229.078 54.914,229.118 54.706 C 229.158 54.499,229.156 54.199,229.115 54.040 C 229.073 53.880,229.040 54.050,229.042 54.417 M229.042 63.417 C 229.044 63.783,229.078 63.914,229.118 63.706 C 229.158 63.499,229.156 63.199,229.115 63.040 C 229.073 62.880,229.040 63.050,229.042 63.417 " stroke="none" fill="#f4ec2c" fill-rule="evenodd"></path><path id="path4" d="" stroke="none" fill="#48c880" fill-rule="evenodd"></path></g></svg>